<svg width="60" height="60" viewBox="0 0 60 60" fill="none" xmlns="http://www.w3.org/2000/svg">
<g clip-path="url(#clip0_108_3212)">
<path d="M22.099 8.32093C22.4789 8.97436 23.2639 9.28867 23.9983 9.09016C25.906 8.56079 27.915 8.27957 30 8.27957C32.085 8.27957 34.094 8.56907 36.0017 9.09016C36.7361 9.29694 37.5211 8.97436 37.9009 8.32093L40.4924 3.91232C41.0242 3.00248 40.5852 1.83623 39.5723 1.50538C36.5588 0.529363 33.3427 0 30 0C26.6573 0 23.4412 0.529363 20.4277 1.50538C19.4147 1.83623 18.9674 3.00248 19.5076 3.91232L22.099 8.32093Z" fill="#1A7430"/>
<path d="M47.8029 8.06474L45.2114 12.4651C44.8316 13.1102 44.9328 13.9374 45.4815 14.4585C48.3515 17.2045 50.4703 20.7116 51.4917 24.6322C51.6774 25.36 52.3527 25.8563 53.1208 25.8563H58.3121C59.3842 25.8563 60.1945 24.8886 59.9751 23.8629C58.616 17.4775 55.1805 11.8364 50.4027 7.6429C49.6093 6.93984 48.3431 7.14662 47.8113 8.05647L47.8029 8.06474Z" fill="#DCDCDC"/>
<path d="M51.4917 35.3594C50.4703 39.2882 48.3515 42.787 45.4815 45.5331C44.9328 46.0542 44.8316 46.8813 45.2114 47.5265L47.8029 51.9268C48.3347 52.8366 49.5924 53.0434 50.3943 52.3404C55.1805 48.1468 58.616 42.5058 59.9666 36.1203C60.1861 35.0947 59.3757 34.127 58.3037 34.127H53.1124C52.3527 34.127 51.6689 34.6232 51.4832 35.3511L51.4917 35.3594Z" fill="#DCDCDC"/>
<path d="M1.69703 25.8637H6.88836C7.64807 25.8637 8.33181 25.3674 8.51751 24.6395C9.5389 20.7106 11.6576 17.2119 14.5276 14.4658C15.0763 13.9447 15.1776 13.1176 14.7978 12.4724L12.2063 8.07209C11.6745 7.16225 10.4168 6.95546 9.61487 7.65853C4.82871 11.8438 1.39315 17.4848 0.0341159 23.8703C-0.185355 24.8959 0.624999 25.8637 1.69703 25.8637Z" fill="#DCDCDC"/>
<path d="M6.88836 34.1348H1.69703C0.624999 34.1348 -0.185355 35.1025 0.0341159 36.1281C1.39315 42.5136 4.82871 48.1546 9.61487 52.3482C10.4083 53.0512 11.6745 52.8444 12.2063 51.9346L14.7978 47.5343C15.1776 46.8891 15.0763 46.062 14.5276 45.5409C11.6576 42.7948 9.5389 39.2878 8.51751 35.3672C8.33181 34.6393 7.65651 34.143 6.88836 34.143V34.1348Z" fill="#DCDCDC"/>
<path d="M37.901 51.679C37.5211 51.0256 36.7361 50.7113 36.0017 50.9098C34.094 51.4392 32.085 51.7204 30 51.7204C27.915 51.7204 25.906 51.4309 23.9983 50.9098C23.2639 50.703 22.4789 51.0256 22.0991 51.679L19.5076 56.0876C18.9758 56.9975 19.4148 58.1637 20.4277 58.4946C23.4412 59.4706 26.6573 60 30 60C33.3427 60 36.5588 59.4706 39.5723 58.4946C40.5853 58.1637 41.0326 56.9975 40.4924 56.0876L37.901 51.6873V51.679Z" fill="#DCDCDC"/>
<path d="M32.84 33.3C34.04 33.2733 34.9267 33.2467 35.5 33.22V37H24.92V33.22C26.36 33.2733 27.4467 33.3 28.18 33.3V26.4C27.7 27.4533 26.72 28.1333 25.24 28.44C25.2 26.8667 25.0533 25.4333 24.8 24.14C25.8667 23.9933 26.6067 23.8133 27.02 23.6C27.4467 23.3733 27.7733 23.1267 28 22.86C28.24 22.5933 28.4 22.4133 28.48 22.32V22.28H32.84V33.3Z" fill="#1A7430"/>
</g>
<defs>
<clipPath id="clip0_108_3212">
<rect width="60" height="60" fill="white"/>
</clipPath>
</defs>
</svg>
