<svg width="373" height="100" viewBox="0 0 373 100" fill="none" xmlns="http://www.w3.org/2000/svg">
<rect x="313.5" y="0.5" width="59" height="24" rx="12" stroke="#DCDCDC"/>
<mask id="path-2-inside-1_108_3194" fill="white">
<path d="M293 0C301.284 0 308 6.71573 308 15C308 23.2843 314.716 30 323 30H357C365.837 30 373 37.1634 373 46V84C373 92.8366 365.837 100 357 100H16C7.16344 100 0 92.8366 0 84V16C0 7.16345 7.16344 0 16 0H293Z"/>
</mask>
<path d="M323 30V31H357V30V29H323V30ZM373 46H372V84H373H374V46H373ZM357 100V99H16V100V101H357V100ZM0 84H1V16H0H-1V84H0ZM16 0V1H293V0V-1H16V0ZM0 16H1C1 7.71573 7.71573 1 16 1V0V-1C6.61116 -1 -1 6.61116 -1 16H0ZM16 100V99C7.71573 99 1 92.2843 1 84H0H-1C-1 93.3888 6.61116 101 16 101V100ZM373 84H372C372 92.2843 365.284 99 357 99V100V101C366.389 101 374 93.3888 374 84H373ZM357 30V31C365.284 31 372 37.7157 372 46H373H374C374 36.6112 366.389 29 357 29V30ZM308 15H307C307 23.8366 314.163 31 323 31V30V29C315.268 29 309 22.732 309 15H308ZM308 15H309C309 6.16344 301.837 -1 293 -1V0V1C300.732 1 307 7.26801 307 15H308Z" fill="#DCDCDC" mask="url(#path-2-inside-1_108_3194)"/>
<path d="M348.192 10L351 12.5M351 12.5L348.192 15M351 12.5H336" stroke="#323232" stroke-width="1.5" stroke-linecap="square"/>
</svg>
