<svg width="1825" height="887" viewBox="0 0 1825 887" fill="none" xmlns="http://www.w3.org/2000/svg">
<path d="M1068 405.5C1068 459.348 1024.35 503 970.5 503C916.652 503 873 459.348 873 405.5C873 351.652 916.652 308 970.5 308C1024.35 308 1068 351.652 1068 405.5Z" fill="#25AD46"/>
<path d="M1825 308C1825 382.006 1765.01 442 1691 442C1616.99 442 1557 382.006 1557 308C1557 233.994 1616.99 174 1691 174C1765.01 174 1825 233.994 1825 308Z" fill="#25AD46"/>
<path d="M1460 60C1460 93.1371 1433.14 120 1400 120C1366.86 120 1340 93.1371 1340 60C1340 26.8629 1366.86 0 1400 0C1433.14 0 1460 26.8629 1460 60Z" fill="#25AD46"/>
<path d="M278 287C278 363.768 215.768 426 139 426C62.2324 426 0 363.768 0 287C0 210.232 62.2324 148 139 148C215.768 148 278 210.232 278 287Z" fill="#25AD46"/>
<path d="M336 704C336 760.333 290.333 806 234 806C177.667 806 132 760.333 132 704C132 647.667 177.667 602 234 602C290.333 602 336 647.667 336 704Z" fill="#25AD46"/>
<path d="M1459.5 626C1545.93 626 1616 696.067 1616 782.5C1616 822.664 1600.87 859.292 1576 887H1343C1318.13 859.292 1303 822.664 1303 782.5C1303 696.067 1373.07 626 1459.5 626Z" fill="#25AD46"/>
<path d="M592.763 845C644.38 845 692.384 860.461 732.403 887H453.122C493.142 860.461 541.146 845 592.763 845Z" fill="#25AD46"/>
<path d="M1093.33 887C1087.09 857.852 1061.18 835.998 1030.17 835.998C999.152 835.998 973.245 857.852 967 887H1093.33Z" fill="#25AD46"/>
</svg>
