<svg width="29" height="5" viewBox="0 0 29 5" fill="none" xmlns="http://www.w3.org/2000/svg">
<path d="M28.3873 2.7307C28.423 2.70043 28.4514 2.66447 28.4707 2.62488C28.49 2.58528 28.5 2.54284 28.5 2.49998C28.5 2.45711 28.49 2.41467 28.4707 2.37507C28.4514 2.33548 28.423 2.29952 28.3873 2.26925L25.9464 0.195315C25.8744 0.134209 25.7767 0.0999146 25.6749 0.0999757C25.5732 0.100037 25.4756 0.134449 25.4037 0.195641C25.3317 0.256834 25.2914 0.339794 25.2915 0.426273C25.2915 0.512751 25.332 0.595663 25.404 0.656769L27.5734 2.49998L25.404 4.34318C25.332 4.40429 25.2915 4.4872 25.2915 4.57368C25.2914 4.66016 25.3317 4.74312 25.4037 4.80431C25.4756 4.8655 25.5732 4.89991 25.6749 4.89998C25.7767 4.90004 25.8744 4.86574 25.9464 4.80464L28.3873 2.7307ZM0.5 2.82586H28.1158V2.17409H0.5V2.82586Z" fill="#323232"/>
</svg>
