<svg width="15" height="10" viewBox="0 0 15 10" fill="none" xmlns="http://www.w3.org/2000/svg">
<path d="M10.3 5.66667L13.9561 7.988C14.0088 8.0214 14.07 8.04057 14.1333 8.04345C14.1965 8.04633 14.2594 8.03282 14.3152 8.00436C14.371 7.9759 14.4177 7.93356 14.4502 7.88184C14.4828 7.83012 14.5 7.77096 14.5 7.71067V2.24667C14.5 2.18802 14.4838 2.1304 14.4529 2.07963C14.4221 2.02887 14.3777 1.98675 14.3243 1.95753C14.2709 1.92832 14.2104 1.91304 14.1488 1.91324C14.0872 1.91344 14.0268 1.92911 13.9736 1.95867L10.3 4M1.9 1H8.9C9.6732 1 10.3 1.59695 10.3 2.33333V7.66667C10.3 8.40305 9.6732 9 8.9 9H1.9C1.1268 9 0.5 8.40305 0.5 7.66667V2.33333C0.5 1.59695 1.1268 1 1.9 1Z" stroke="white" stroke-linecap="round" stroke-linejoin="round"/>
</svg>
