<svg width="94" height="21" viewBox="0 0 94 21" fill="none" xmlns="http://www.w3.org/2000/svg">
<path d="M20.0965 0.585938C20.0965 0.585938 17.9504 2.92937 16.9633 4.14733C16.7659 4.39098 16.5688 4.64227 16.3809 4.88578C15.1944 6.42276 13.4254 8.14187 13.2112 10.1138C13.1973 10.2443 13.1973 10.3758 13.2112 10.5062C13.4254 12.4782 15.1944 14.197 16.3809 15.7343C16.5688 15.9778 16.7659 16.2292 16.9633 16.4726C17.9504 17.6905 20.0965 20.0341 20.0965 20.0341C20.0965 20.0341 17.6748 17.9574 16.4162 17.002C16.1645 16.811 15.9048 16.6202 15.6533 16.4384C14.0651 15.29 12.289 13.5786 10.2508 13.371C10.116 13.3575 9.98016 13.3575 9.84541 13.371C7.8073 13.5786 6.03162 15.2901 4.44313 16.4384C4.19151 16.6204 3.9317 16.811 3.68023 17.002C2.42168 17.9574 0 20.0341 0 20.0341C0 20.0341 2.14609 17.6905 3.133 16.4727C3.33056 16.2291 3.52753 15.9778 3.71559 15.7343C4.9021 14.1976 6.67032 12.479 6.88512 10.5062C6.89915 10.3758 6.89915 10.2443 6.88512 10.1138C6.67047 8.14116 4.9021 6.42304 3.71559 4.88578C3.52753 4.64227 3.33056 4.39084 3.133 4.14733C2.1458 2.92937 0 0.585938 0 0.585938C0 0.585938 2.42168 2.66268 3.68008 3.6179C3.93185 3.80908 4.19151 3.9997 4.44313 4.1817C6.03133 5.32994 7.8073 7.04142 9.84541 7.24901C9.98017 7.26244 10.116 7.26244 10.2508 7.24901C12.2889 7.04142 14.0645 5.33008 15.6533 4.1817C15.9048 3.99985 16.1647 3.80908 16.4162 3.61804C17.6748 2.66267 20.0965 0.585938 20.0965 0.585938Z" fill="#323232" fill-opacity="0.5"/>
<path d="M85.501 7.49805H86.9356V13.1406C86.9361 13.3815 86.9094 13.6216 86.8555 13.8564C86.6853 14.69 86.2008 15.4276 85.501 15.918C85.007 16.261 84.4229 16.4543 83.8204 16.4736C83.2177 16.4929 82.6218 16.3372 82.1065 16.0264L82.9083 14.8398C83.1545 14.9792 83.4335 15.0519 83.7169 15.0498C84.0775 15.054 84.4295 14.9398 84.7178 14.7246C85.0134 14.5052 85.24 14.2061 85.3702 13.8633H84.1534C83.608 13.8682 83.0726 13.7187 82.6094 13.4326C82.1383 13.1409 81.75 12.735 81.4805 12.2529C81.2111 11.7707 81.0694 11.2282 81.0694 10.6768C81.0694 10.1253 81.2111 9.58273 81.4805 9.10059C81.75 8.61858 82.1384 8.21256 82.6094 7.9209C83.0725 7.6348 83.608 7.48531 84.1534 7.49023H85.501V7.49805ZM68.6934 7.48438C69.3258 7.50753 69.9379 7.71437 70.4532 8.0791C71.0038 8.47358 71.4281 9.01777 71.6758 9.64551C71.838 10.0605 71.9202 10.5021 71.9171 10.9473V11.1133C71.8588 11.1278 71.8026 11.1428 71.7491 11.1572C71.2912 11.2892 70.8265 11.3976 70.3575 11.4824C69.9384 11.552 69.5154 11.5951 69.0909 11.6123C68.712 11.6267 68.3278 11.6347 67.9395 11.6348C67.7161 11.6348 67.4948 11.6318 67.2764 11.627H66.8321C66.9585 11.9997 67.1937 12.3267 67.5069 12.5674C67.7693 12.7687 68.0839 12.8918 68.4141 12.9219C68.7443 12.9519 69.0763 12.8878 69.3712 12.7373C69.6164 12.6093 69.8313 12.4304 70.001 12.2129L71.501 12.7773C71.1551 13.2714 70.6994 13.6797 70.169 13.9707C69.6844 14.2512 69.1352 14.4034 68.5743 14.4121C67.9815 14.4175 67.3985 14.2555 66.8946 13.9453C66.3821 13.628 65.9592 13.1865 65.6661 12.6621C65.3729 12.1375 65.2188 11.5472 65.2188 10.9473C65.2188 10.3473 65.3729 9.757 65.6661 9.23242C65.9592 8.70803 66.3821 8.26649 66.8946 7.94922C67.4355 7.62319 68.0611 7.46127 68.6934 7.48438ZM74.9503 7.45312C75.3785 7.45613 75.8032 7.53979 76.2003 7.69922C76.6042 7.85319 76.9744 8.08399 77.2891 8.37891L76.2686 9.43555C76.0894 9.27063 75.8809 9.14022 75.6534 9.05176C75.4331 8.95955 75.1971 8.9105 74.9581 8.90723C74.8847 8.90676 74.8111 8.91383 74.7393 8.92871C74.6309 8.94814 74.5271 8.98925 74.4346 9.04883C74.3423 9.10842 74.2623 9.18593 74.2003 9.27637C74.1874 9.29553 74.1801 9.31782 74.1788 9.34082C74.1806 9.36611 74.1877 9.391 74.2003 9.41309C74.2583 9.50924 74.342 9.58866 74.4415 9.6416C74.5577 9.71139 74.6765 9.77532 74.7979 9.83301C75.1329 9.99245 75.4903 10.1417 75.8692 10.2812L76.1456 10.3828C76.9804 10.7349 77.4732 11.2987 77.6241 12.0752C77.6337 12.1519 77.6387 12.2293 77.6387 12.3066C77.6306 12.7767 77.4579 13.2294 77.1505 13.5869C76.91 13.8556 76.6079 14.0626 76.2696 14.1904C75.896 14.3355 75.4978 14.4082 75.0967 14.4043C75.0602 14.4042 75.0236 14.4021 74.9874 14.3975C74.5155 14.3828 74.053 14.2637 73.6329 14.0498C73.4171 13.9379 73.2161 13.7995 73.0352 13.6377C72.8716 13.4896 72.7158 13.333 72.5694 13.168L73.669 12.1914C73.8477 12.4153 74.0654 12.6055 74.3106 12.7549C74.5341 12.8694 74.78 12.934 75.0313 12.9434H75.0675C75.2622 12.9453 75.4569 12.9181 75.6436 12.8633C75.7924 12.8252 75.928 12.748 76.0362 12.6396C76.1092 12.5507 76.1555 12.4422 76.168 12.3281V12.292C76.1417 12.1635 76.0718 12.0474 75.9708 11.9629C75.8654 11.8698 75.7449 11.795 75.6143 11.7422L75.3448 11.6416C74.9465 11.4969 74.5457 11.3277 74.1426 11.1348C73.9083 11.0258 73.684 10.8964 73.4727 10.748C73.2171 10.5667 73.0112 10.3241 72.8751 10.043C72.7665 9.82474 72.7097 9.58424 72.7081 9.34082C72.7096 9.08432 72.7717 8.83167 72.8897 8.60352C73.0556 8.31188 73.2857 8.05988 73.5616 7.86719C73.8374 7.67468 74.1532 7.54566 74.4854 7.48926C74.6392 7.46501 74.7946 7.45284 74.9503 7.45312ZM37.0919 11.0439C37.0818 11.5293 37.2641 11.9996 37.5987 12.3535C37.7508 12.5255 37.9381 12.6634 38.1485 12.7568C38.3591 12.8504 38.5878 12.8976 38.8184 12.8955H40.0635V7.49219H41.5714V14.3926H40.0635L39.9249 14.3857H38.9639L38.8184 14.3926C38.765 14.3926 38.7109 14.3907 38.6573 14.3857H38.6505L38.4835 14.3711C37.6956 14.2822 36.9692 13.9044 36.4473 13.3115C35.907 12.7017 35.601 11.9215 35.5841 11.1094V7.49219H37.0919V11.0439ZM53.4044 7.43164C53.9998 7.42595 54.5845 7.58965 55.0899 7.90234C55.6033 8.22171 56.027 8.66506 56.3204 9.19141C56.6138 9.71775 56.7676 10.3095 56.7676 10.9111C56.7676 11.5127 56.6138 12.1045 56.3204 12.6309C56.027 13.1572 55.6033 13.6015 55.0899 13.9209C54.5814 14.2281 53.9976 14.3906 53.4024 14.3906C52.807 14.3906 52.2226 14.2283 51.7139 13.9209C51.1995 13.6023 50.7757 13.1583 50.4815 12.6318C50.1874 12.1054 50.0333 11.5132 50.0333 10.9111C50.0333 10.309 50.1873 9.71688 50.4815 9.19043C50.7756 8.66414 51.1997 8.22088 51.7139 7.90234C52.221 7.58973 52.8076 7.42615 53.4044 7.43164ZM89.6524 7.5H90.6212L90.7667 7.49219C90.8198 7.49219 90.8705 7.49524 90.919 7.5H90.9268L91.1016 7.51367C91.8899 7.59842 92.6165 7.97616 93.1368 8.57031C93.6767 9.18157 93.9806 9.96336 93.9932 10.7764C93.9983 10.7977 94.0003 10.8199 94.0001 10.8418V14.3857H92.4923V10.7764H92.4844V10.8418C92.4945 10.3572 92.3149 9.88715 91.9825 9.53223C91.8312 9.35995 91.6436 9.22249 91.4337 9.12891C91.2237 9.03536 90.9958 8.98794 90.7657 8.99023H89.5137V14.3867H88.0059V7.49219H89.6524V7.5ZM29.876 7.46191H31.3399L31.5147 7.47656C32.3307 7.57017 33.0824 7.96207 33.6231 8.57617C34.1823 9.20638 34.497 10.0146 34.5089 10.8545C34.5137 10.8782 34.5156 10.9026 34.5157 10.9268V14.3848H32.9503V10.9268C32.961 10.4246 32.7735 9.93781 32.4288 9.57031C32.2713 9.39198 32.0765 9.24907 31.8585 9.15234C31.6405 9.05574 31.4038 9.00717 31.1651 9.00977H29.876V14.3848H28.3175V4.71289H29.876V7.46191ZM48.9776 14.3691H48.5479V14.3828H45.9698C45.3792 14.3888 44.7989 14.2276 44.2979 13.917C43.7965 13.6073 43.3822 13.1763 43.0928 12.665C42.7967 12.135 42.6407 11.5388 42.6407 10.9326C42.6407 10.3265 42.7967 9.73018 43.0928 9.2002C43.3822 8.68917 43.7967 8.25894 44.2979 7.94922C44.7989 7.63857 45.3792 7.47642 45.9698 7.48242L46.1514 7.48926H47.4268V4.74805H48.9776V14.3691ZM64.1602 14.3691H63.7305V14.3828H61.1524C60.5619 14.3888 59.9815 14.2276 59.4805 13.917C58.9792 13.6073 58.5648 13.1762 58.2755 12.665C57.9794 12.135 57.8243 11.5387 57.8243 10.9326C57.8243 10.3265 57.9793 9.73018 58.2755 9.2002C58.5648 8.68918 58.9793 8.25895 59.4805 7.94922C59.9815 7.6386 60.5619 7.47645 61.1524 7.48242L61.335 7.48926H62.6094V4.74805H64.1602V14.3691ZM80.0108 7.47559V14.377H78.4962V7.46875H79.5235L80.0108 7.47559ZM24.2169 7.47266C24.715 7.43059 25.2165 7.50421 25.6807 7.68848C26.0495 7.83709 26.3879 8.05153 26.6788 8.32129L25.6085 9.34863C25.2962 9.08334 24.8973 8.93928 24.4864 8.94336C24.2395 8.94115 23.9951 8.99199 23.7696 9.0918C23.544 9.19165 23.3422 9.33858 23.1788 9.52246C22.8297 9.90535 22.6368 10.4034 22.6368 10.9199C22.6368 11.4366 22.8296 11.9354 23.1788 12.3184C23.3416 12.5031 23.543 12.6505 23.7686 12.751C23.9943 12.8515 24.2391 12.9025 24.4864 12.9004C24.8307 12.9034 25.1675 12.8011 25.4512 12.6074C25.7391 12.413 25.9717 12.1473 26.1251 11.8369L27.2462 12.8496C26.9518 13.3109 26.5483 13.6938 26.0704 13.9639C25.5714 14.243 25.0063 14.3854 24.4337 14.376C23.8609 14.3665 23.301 14.2048 22.8116 13.9092C22.2995 13.5942 21.8769 13.1538 21.586 12.6299C21.2952 12.1061 21.1453 11.5161 21.1505 10.918C21.144 10.3111 21.3004 9.71308 21.6026 9.18555C21.8932 8.67331 22.3091 8.24156 22.8116 7.93066C23.2377 7.67134 23.7189 7.51476 24.2169 7.47266ZM53.4014 8.92188C53.1535 8.92188 52.9081 8.974 52.6817 9.07422C52.4552 9.17451 52.2518 9.3207 52.086 9.50391C51.7345 9.88936 51.5401 10.3911 51.5401 10.9111C51.5401 11.4312 51.7345 11.9329 52.086 12.3184C52.2509 12.5036 52.4542 12.6515 52.6817 12.752C52.9091 12.8524 53.1556 12.9028 53.4044 12.9004C53.6522 12.9023 53.8979 12.8515 54.1241 12.751C54.3503 12.6505 54.5522 12.503 54.7159 12.3184C55.0674 11.9329 55.2618 11.4312 55.2618 10.9111C55.2618 10.3911 55.0674 9.88936 54.7159 9.50391C54.5502 9.32084 54.3475 9.17449 54.1212 9.07422C53.8947 8.97397 53.6493 8.92192 53.4014 8.92188ZM45.9688 9.03027C45.732 9.02795 45.4975 9.07672 45.2813 9.17285C45.0653 9.26891 44.8728 9.41009 44.7169 9.58691C44.3749 9.95147 44.1897 10.4345 44.2003 10.9326C44.1896 11.4309 44.3746 11.9138 44.7169 12.2783C44.8728 12.4553 45.0652 12.5972 45.2813 12.6934C45.4974 12.7895 45.732 12.8373 45.9688 12.835H47.4258V9.03027H45.9688ZM61.1514 9.03027C60.9146 9.02795 60.6801 9.07672 60.4639 9.17285C60.248 9.26891 60.0554 9.41009 59.8995 9.58691C59.5575 9.95147 59.3723 10.4345 59.3829 10.9326C59.3722 11.4309 59.5572 11.9138 59.8995 12.2783C60.0554 12.4553 60.2478 12.5972 60.4639 12.6934C60.68 12.7895 60.9147 12.8373 61.1514 12.835H62.6085V9.03027H61.1514ZM84.1534 8.91602C83.9343 8.91429 83.7175 8.95959 83.5176 9.04883C83.3178 9.1381 83.1393 9.26959 82.9952 9.43359C82.686 9.77507 82.5147 10.2185 82.5147 10.6777C82.5148 11.137 82.6858 11.5805 82.9952 11.9219C83.1393 12.0859 83.3178 12.2164 83.5176 12.3057C83.7175 12.3949 83.9343 12.4402 84.1534 12.4385H85.501V8.91602H84.1534ZM68.5391 8.95801C68.1859 8.96578 67.8436 9.08093 67.5577 9.28711C67.256 9.50397 67.0218 9.80139 66.8829 10.1445C67.0141 10.1445 67.1454 10.1466 67.2764 10.1514C67.4754 10.1564 67.6721 10.1584 67.8663 10.1582C68.2599 10.1582 68.6464 10.1491 69.0255 10.1299C69.4213 10.1224 69.8163 10.0812 70.2051 10.0068C70.0534 9.69824 69.8214 9.43451 69.5342 9.24316C69.2395 9.04982 68.8923 8.95025 68.5391 8.95801ZM79.3272 5.30273C79.5018 5.31984 79.6651 5.39638 79.7891 5.51953C79.8607 5.58835 79.917 5.67131 79.9551 5.7627C79.9933 5.85402 80.0123 5.95193 80.0108 6.05078C80.011 6.22502 79.951 6.39447 79.8399 6.5293C79.7287 6.66414 79.5735 6.75685 79.4014 6.79102C79.2294 6.82515 79.0504 6.79882 78.8956 6.7168C78.7408 6.63476 78.6191 6.50177 78.5518 6.34082C78.4846 6.17989 78.4766 6.00075 78.5274 5.83398C78.5783 5.66717 78.6852 5.52267 78.8311 5.42578C78.977 5.3289 79.1526 5.2857 79.3272 5.30273Z" fill="#323232" fill-opacity="0.5"/>
</svg>
