<svg width="96" height="96" viewBox="0 0 96 96" fill="none" xmlns="http://www.w3.org/2000/svg">
<path d="M67.9589 32.7203C63.4586 32.2834 60.0133 32.5559 55.7197 35.0274C52.6136 36.8154 49.22 40.6221 49.6186 46.4737C56.9457 39.0298 63.1903 37.7695 63.2529 37.757C56.4508 40.5179 50.7217 45.8093 47.37 52.3341C43.9365 46.7291 38.7026 42.2229 32.6069 39.7487C32.6695 39.7612 38.9142 41.0214 46.2413 48.4654C46.6399 42.6137 43.2463 38.8071 40.1402 37.019C35.8465 34.5476 32.4012 34.2751 27.9009 34.7119C26.6984 38.8307 26.7482 43.3765 28.1891 46.7237C29.093 48.8237 30.5777 50.6699 32.5223 51.8725C36.7378 54.4795 42.4078 52.499 44.4882 51.0776C44.4882 51.0776 45.4465 52.2081 46.4471 54.3037C46.5069 54.4289 46.567 54.558 46.6271 54.6902C46.8823 55.2534 47.2234 56.4265 47.4228 57.6686C41.9242 57.8409 43.8456 65.369 41.1256 69.7551C40.7158 70.4158 41.1883 71.2697 41.9658 71.2697L47.8339 70.4922L57.4391 69.7551C58.2139 69.7551 58.6906 68.9041 58.2824 68.2455C55.7257 64.1191 54.504 58.2008 49.4161 57.7291C49.2595 56.5359 48.8471 55.0267 48.5378 54.4199C49.7627 50.9839 51.3716 49.086 51.3716 49.086C53.4521 50.5074 59.122 52.4878 63.3375 49.8809C65.2821 48.6783 66.7668 46.8321 67.6707 44.732C69.1116 41.3848 69.1615 36.8391 67.9589 32.7203Z" fill="#1A7430"/>
<path d="M63.4837 73.8786C63.4837 82.5952 56.5514 77.5424 47.9999 77.5424C39.4484 77.5424 32.516 82.5952 32.516 73.8786C32.516 65.1619 39.4484 58.0957 47.9999 58.0957C56.5514 58.0957 63.4837 65.1619 63.4837 73.8786Z" fill="#1A7430"/>
<path d="M55.0381 0C56.07 4.09166e-05 56.9326 0.785159 57.0293 1.8125L57.9336 11.4395C57.9337 11.4421 57.9313 11.4441 57.9287 11.4434L57.9004 11.4355C61.0463 12.309 64.0231 13.5883 66.7715 15.2129C66.7568 15.2038 66.7553 15.1829 66.7686 15.1719L74.2734 8.95605C75.0683 8.29779 76.2341 8.35234 76.9639 9.08203L81.9404 14.0586L86.917 19.0361C87.6466 19.7659 87.7012 20.9308 87.043 21.7256L80.5771 29.5332C80.566 29.5463 80.5454 29.5444 80.5371 29.5293C81.9655 32.1796 83.0795 35.0248 83.8301 38.0137C83.8284 38.0054 83.8354 37.9974 83.8438 37.998L94.1875 38.9697C95.2147 39.0664 95.9998 39.9292 96 40.9609V55.0381C95.9999 56.07 95.2148 56.9326 94.1875 57.0293L83.2793 58.0537C83.2739 58.0542 83.2692 58.0492 83.2705 58.0439C82.5753 60.2734 81.6756 62.4121 80.5918 64.4375C80.1955 65.1783 80.2649 66.0883 80.8008 66.7354L87.0439 74.2734C87.7022 75.0683 87.6476 76.2341 86.918 76.9639L76.9648 86.917C76.2351 87.6468 75.0693 87.7013 74.2744 87.043L65.3848 79.6807C65.369 79.6671 65.3714 79.6421 65.3896 79.6318C63.0918 80.86 60.6498 81.8531 58.0947 82.5771C58.1076 82.5738 58.1194 82.5844 58.1182 82.5977L57.0303 94.1875C56.9336 95.2149 56.0701 96 55.0381 96H40.9619C39.93 95.9999 39.0674 95.2148 38.9707 94.1875L38.0078 83.9326C37.9306 83.1112 37.3549 82.426 36.5703 82.1709C34.5076 81.5004 32.5246 80.6531 30.6387 79.6475C30.6436 79.6502 30.6448 79.6574 30.6406 79.6611L21.7256 87.0439C20.9307 87.7023 19.7649 87.6478 19.0352 86.918L9.08203 76.9648C8.35253 76.2351 8.29804 75.0702 8.95605 74.2754L16.0762 65.6787C16.0841 65.6692 16.0989 65.6702 16.1055 65.6807C14.7071 63.2935 13.5683 60.7359 12.7295 58.0459C12.7308 58.0507 12.7267 58.0552 12.7217 58.0547L1.8125 57.0293C0.785131 56.9326 0 56.07 0 55.0381V40.9609C0.000226368 39.9292 0.785262 39.0664 1.8125 38.9697L12.125 38.001C12.1484 37.9988 12.1673 38.0201 12.1621 38.043C12.9121 35.0448 14.0285 32.191 15.4609 29.5332C15.4537 29.5464 15.4354 29.5477 15.4258 29.5361L8.95605 21.7246C8.29804 20.9298 8.35252 19.7649 9.08203 19.0352L14.0586 14.0586L19.0361 9.08203C19.7659 8.35237 20.9307 8.29698 21.7256 8.95508L29.252 15.1885C29.255 15.191 29.2551 15.1959 29.252 15.1982C31.9869 13.5842 34.948 12.3119 38.0752 11.4414C38.0709 11.4423 38.0671 11.439 38.0674 11.4346L38.9707 1.81348C39.0672 0.785839 39.9298 0 40.9619 0H55.0381ZM48 18.125C32.1797 18.125 19.3545 30.9502 19.3545 46.7705C19.3547 62.5906 32.1798 75.415 48 75.415C63.8202 75.415 76.6453 62.5906 76.6455 46.7705C76.6455 30.9502 63.8203 18.125 48 18.125Z" fill="#1A7430"/>
</svg>
