<svg width="80" height="90" viewBox="0 0 80 90" fill="none" xmlns="http://www.w3.org/2000/svg">
<path d="M79.5463 40.413C77.5577 54.8278 68.9974 68.1742 56.8016 75.8675C44.6059 83.5608 29.0077 85.4571 15.363 80.9037C21.2532 61.0529 32.9591 43.0145 48.6121 29.6659C37.4873 35.3506 28.7229 45.0073 22.1326 55.7208C15.5422 66.4343 10.9394 78.2549 6.37286 90C2.03832 89.3147 0 86.4446 0 86.4446C0.200932 84.6249 3.59503 77.4007 7.03676 70.5617C-0.532366 59.7023 4.83169 43.2968 14.6018 34.2466C22.1326 27.2701 34.8317 23.4051 44.1843 19.2704C53.537 15.1368 63.0585 9.42061 67.2625 0C76.9104 10.7859 81.5339 25.9993 79.5463 40.4151V40.413Z" fill="#1A7430"/>
</svg>
