<svg width="111" height="28" viewBox="0 0 111 28" fill="none" xmlns="http://www.w3.org/2000/svg">
<path d="M17.8841 17.7474C17.7003 16.4189 17.1993 15.1263 16.428 14.0027C17.8967 11.9551 18.3419 9.29258 17.6498 6.68224C16.9434 4.02337 15.19 1.90022 12.84 0.86112C11.6614 0.298423 10.3315 0 8.99072 0H1.56603C0.702823 0 0 0.701119 0 1.56224V8.96539C0.00540632 10.3047 0.304556 11.6333 0.866813 12.8054C2.51754 16.4746 6.96515 18.6337 10.9893 17.7222C11.474 17.6126 11.8128 17.1937 11.8128 16.7011C11.8128 16.4315 11.7065 16.178 11.5137 15.9838L10.8847 15.351C10.6216 15.0957 10.263 14.9735 9.92781 15.0274C8.30952 15.2791 6.5831 14.8476 5.30901 13.8733L5.26035 13.8391C3.7592 12.6957 2.83652 10.8333 2.84913 8.96539V3.15505C2.84913 3.06876 2.88157 2.99146 2.94104 2.93393C2.9969 2.8782 3.06719 2.84404 3.15549 2.85123C3.53213 2.85123 4.06015 2.84764 4.66205 2.84225C6.65879 2.82607 9.67732 2.80089 10.2071 2.96089L10.227 2.96629C11.9804 3.27191 13.496 4.41168 14.388 6.09438C15.2873 7.79326 15.3828 9.77798 14.6439 11.4031C14.6007 11.4966 14.5178 11.5613 14.4169 11.5793C14.3195 11.5973 14.2222 11.5667 14.152 11.4984C13.3284 10.6715 11.9516 9.30337 11.0289 8.38831L10.9028 8.26247L10.8883 8.24809C10.4739 7.92629 9.90078 7.92449 9.4863 8.25528C9.43403 8.30202 9.38898 8.34876 9.35474 8.38472C9.22319 8.51236 9.08623 8.64719 8.95467 8.78022C8.52938 9.20989 8.52938 9.90562 8.95467 10.3299L13.3374 14.702C14.7701 16.1097 15.4278 18.2903 15.0098 20.2589C14.5376 22.6391 12.613 24.5591 10.2071 25.0391C9.6647 25.1991 6.63896 25.1757 4.63682 25.1613C4.04753 25.1559 3.52672 25.1542 3.15549 25.1542C2.98609 25.1542 2.84913 25.0175 2.84913 24.8485V18.8656C2.84913 18.5187 2.67613 18.1861 2.38419 17.9739C1.93186 17.6467 1.50296 17.2782 1.06865 16.8467C0.888438 16.667 0.628934 16.6166 0.392858 16.7155C0.15498 16.8144 0.00180112 17.0427 0.00180112 17.298V26.4378C0.00180112 27.2989 0.704624 28 1.56783 28H8.99252C10.3315 28 11.6632 27.7016 12.84 27.1389C16.3758 25.5137 18.4968 21.564 17.8859 17.751L17.8841 17.7474Z" fill="white"/>
<path d="M23.5674 8.49407C23.5674 8.33113 23.6246 8.19173 23.7408 8.07405C23.8569 7.95637 23.9945 7.89844 24.1554 7.89844H29.179C30.4103 7.89844 31.3181 8.25691 31.9025 8.97565C32.2278 9.37214 32.3904 9.87725 32.3904 10.4928C32.3904 11.1084 32.1116 11.6461 31.5558 12.1041C32.3475 12.5332 32.7425 13.2012 32.7425 14.1064C32.7425 15.0117 32.4261 15.6996 31.7935 16.1685C31.1609 16.6374 30.3853 16.8728 29.4685 16.8728H24.1554C23.9945 16.8728 23.8569 16.8149 23.7408 16.7008C23.6264 16.5867 23.5674 16.4473 23.5674 16.2844V8.49226V8.49407ZM25.8978 11.3853H29.2022C29.4613 11.3853 29.6704 11.3075 29.8259 11.1518C29.9832 10.9943 30.06 10.777 30.06 10.4946C30.06 10.2122 29.9814 9.99312 29.8259 9.8338C29.6704 9.67448 29.4613 9.59663 29.2022 9.59663H25.8978V11.3872V11.3853ZM25.8978 15.1837H29.4309C29.7473 15.1837 29.9921 15.0877 30.1601 14.8958C30.3281 14.7039 30.4139 14.4414 30.4139 14.1064C30.4139 13.7715 30.3299 13.509 30.1601 13.3171C29.9903 13.1252 29.7473 13.0292 29.4309 13.0292H25.8978V15.1818V15.1837Z" fill="white"/>
<path d="M34.0017 16.27V8.47947C34.0017 8.31656 34.0588 8.179 34.1747 8.06677C34.2906 7.95455 34.428 7.89844 34.5885 7.89844H41.6976C41.8581 7.89844 41.9937 7.95636 42.1078 8.07402C42.2202 8.18986 42.2772 8.33105 42.2772 8.49395V9.08223C42.2772 9.24514 42.2202 9.3827 42.1078 9.49854C41.9955 9.61258 41.8581 9.6705 41.6976 9.6705H36.3274V11.4914H40.9521C41.1126 11.4914 41.2482 11.5494 41.3623 11.6634C41.4764 11.7774 41.5317 11.9168 41.5317 12.0797V12.668C41.5317 12.8309 41.4747 12.9703 41.3623 13.0843C41.2499 13.1983 41.1126 13.2563 40.9521 13.2563H36.3274V15.1025H41.6851C41.8421 15.1025 41.9741 15.1587 42.0864 15.2709C42.1988 15.3831 42.2541 15.5207 42.2541 15.6836V16.2845C42.2541 16.4474 42.197 16.585 42.0811 16.7008C41.9669 16.8149 41.8278 16.8728 41.6673 16.8728H34.5903C34.4298 16.8728 34.2924 16.8149 34.1765 16.7008C34.0624 16.5868 34.0035 16.4438 34.0035 16.2718L34.0017 16.27Z" fill="white"/>
<path d="M43.9 16.2971V8.49226C43.9 8.32027 43.9559 8.17905 44.0676 8.06681C44.1793 7.95456 44.3216 7.89844 44.491 7.89844H50.5069C50.6781 7.89844 50.8168 7.95456 50.9268 8.06681C51.0367 8.17905 51.0925 8.32208 51.0925 8.49226V9.08066C51.0925 9.25265 51.0367 9.39205 50.9268 9.50249C50.8168 9.61292 50.6763 9.66905 50.5069 9.66905H46.2459V16.2971C46.2459 16.46 46.1882 16.5958 46.0747 16.7062C45.9612 16.8167 45.8224 16.8728 45.6603 16.8728H44.4892C44.327 16.8728 44.1883 16.8167 44.0712 16.7062C43.9559 16.5958 43.8964 16.4582 43.8964 16.2971H43.9Z" fill="white"/>
<path d="M52.172 16.27V8.47947C52.172 8.31656 52.2291 8.179 52.345 8.06677C52.4609 7.95455 52.5983 7.89844 52.7588 7.89844H59.8679C60.0284 7.89844 60.164 7.95636 60.2781 8.07402C60.3905 8.18986 60.4475 8.33105 60.4475 8.49395V9.08223C60.4475 9.24514 60.3905 9.3827 60.2781 9.49854C60.1657 9.61439 60.0284 9.6705 59.8679 9.6705H54.4977V11.4914H59.1224C59.2829 11.4914 59.4184 11.5494 59.5326 11.6634C59.6467 11.7774 59.702 11.9168 59.702 12.0797V12.668C59.702 12.8309 59.6449 12.9703 59.5326 13.0843C59.4202 13.1983 59.2829 13.2563 59.1224 13.2563H54.4977V15.1025H59.8554C60.0124 15.1025 60.1443 15.1587 60.2567 15.2709C60.3691 15.3831 60.4243 15.5207 60.4243 15.6836V16.2845C60.4243 16.4474 60.3673 16.585 60.2514 16.7008C60.1372 16.8149 59.9981 16.8728 59.8376 16.8728H52.7606C52.6 16.8728 52.4627 16.8149 52.3468 16.7008C52.2326 16.5868 52.1738 16.4438 52.1738 16.2718L52.172 16.27Z" fill="white"/>
<path d="M61.8868 9.08066V8.49226C61.8868 8.32027 61.9421 8.17905 62.0527 8.06681C62.1633 7.95456 62.3041 7.89844 62.4718 7.89844H70.2953C70.4629 7.89844 70.6038 7.95456 70.7144 8.06681C70.8249 8.17905 70.882 8.32208 70.882 8.49226V9.08066C70.882 9.25265 70.8267 9.39205 70.7144 9.50249C70.6038 9.61292 70.4629 9.66905 70.2953 9.66905H67.5454V16.2971C67.5454 16.46 67.4883 16.5958 67.3759 16.7062C67.2636 16.8167 67.1263 16.8728 66.9658 16.8728H65.8013C65.6408 16.8728 65.5035 16.8167 65.3911 16.7062C65.2788 16.5958 65.2217 16.4582 65.2217 16.2971V9.66905H62.4718C62.3024 9.66905 62.1633 9.61292 62.0527 9.50249C61.9421 9.39205 61.8868 9.25084 61.8868 9.08066Z" fill="white"/>
<path d="M72.1412 16.27V8.47947C72.1412 8.31656 72.1983 8.179 72.3142 8.06677C72.4302 7.95455 72.5675 7.89844 72.728 7.89844H79.8371C79.9976 7.89844 80.1332 7.95636 80.2473 8.07402C80.3597 8.18986 80.4168 8.33105 80.4168 8.49395V9.08223C80.4168 9.24514 80.3597 9.3827 80.2473 9.49854C80.135 9.61439 79.9976 9.6705 79.8371 9.6705H74.4669V11.4914H79.0916C79.2521 11.4914 79.3877 11.5494 79.5018 11.6634C79.616 11.7774 79.6713 11.9168 79.6713 12.0797V12.668C79.6713 12.8309 79.6142 12.9703 79.5018 13.0843C79.3895 13.1983 79.2521 13.2563 79.0916 13.2563H74.4669V15.1025H79.8247C79.9816 15.1025 80.1136 15.1587 80.2259 15.2709C80.3383 15.3831 80.3936 15.5207 80.3936 15.6836V16.2845C80.3936 16.4474 80.3365 16.585 80.2206 16.7008C80.1064 16.8149 79.9673 16.8728 79.8068 16.8728H72.7298C72.5693 16.8728 72.4319 16.8149 72.316 16.7008C72.2019 16.5868 72.143 16.4438 72.143 16.2718L72.1412 16.27Z" fill="white"/>
<path d="M81.8579 16.2862V8.49407C81.8579 8.33113 81.9142 8.19173 82.0268 8.07405C82.1395 7.95637 82.2775 7.89844 82.441 7.89844H87.2329C89.765 7.89844 91.0311 9.06074 91.0311 11.3872C91.0311 13.7136 89.765 14.8759 87.2329 14.8759H84.2248V16.2844C84.2248 16.4473 84.1666 16.5849 84.0522 16.7008C83.9378 16.8149 83.7979 16.8728 83.6344 16.8728H82.4537C82.2902 16.8728 82.1504 16.8149 82.0323 16.7008C81.916 16.5867 81.8561 16.4473 81.8561 16.2844L81.8579 16.2862ZM84.2266 13.1071H86.519C87.222 13.1071 87.756 12.9894 88.1211 12.754C88.4862 12.5187 88.6679 12.0643 88.6679 11.389C88.6679 10.7137 88.4862 10.2611 88.1211 10.0239C87.7578 9.78854 87.2238 9.67086 86.519 9.67086H84.2266V13.1071Z" fill="white"/>
<path d="M92.2922 16.2862V8.49407C92.2922 8.33113 92.3485 8.19173 92.4611 8.07405C92.5737 7.95637 92.7118 7.89844 92.8753 7.89844H97.6671C100.199 7.89844 101.465 9.06074 101.465 11.3872C101.465 13.7136 100.199 14.8759 97.6671 14.8759H94.659V16.2844C94.659 16.4473 94.6009 16.5849 94.4865 16.7008C94.372 16.8149 94.2322 16.8728 94.0687 16.8728H92.888C92.7245 16.8728 92.5846 16.8149 92.4665 16.7008C92.3503 16.5867 92.2903 16.4473 92.2903 16.2844L92.2922 16.2862ZM94.659 13.1071H96.9514C97.6544 13.1071 98.1885 12.9894 98.5536 12.754C98.9187 12.5187 99.1003 12.0643 99.1003 11.389C99.1003 10.7137 98.9187 10.2611 98.5536 10.0239C98.1903 9.78854 97.6562 9.67086 96.9514 9.67086H94.659V13.1071Z" fill="white"/>
<path d="M101.489 16.2954L103.039 10.3384C103.459 8.71659 104.826 7.90206 107.14 7.89844H110.468C110.62 7.89844 110.747 7.95636 110.848 8.07402C110.949 8.18986 111 8.32562 111 8.48128V16.2972C111 16.4601 110.943 16.5959 110.827 16.7063C110.711 16.8167 110.573 16.8728 110.413 16.8728H109.251C109.082 16.8728 108.944 16.8167 108.835 16.7063C108.726 16.5959 108.671 16.4547 108.671 16.2845V14.7079H104.279L103.865 16.2845C103.824 16.4565 103.731 16.5959 103.586 16.7063C103.441 16.8167 103.29 16.8728 103.129 16.8728H101.912C101.751 16.8728 101.635 16.8257 101.567 16.7316C101.498 16.6375 101.464 16.556 101.466 16.4854C101.466 16.4148 101.474 16.3515 101.487 16.2972L101.489 16.2954ZM104.737 12.9341H108.671V9.66688H106.911C106.516 9.66688 106.171 9.78092 105.877 10.0072C105.582 10.2352 105.383 10.5393 105.28 10.9249L104.737 12.9341Z" fill="white"/>
<path d="M25.6991 22.7939L25.5113 22.2561H24.3078L24.1164 22.7939H23.5674L24.5581 20.1016H25.2752L26.266 22.7939H25.7009H25.6991ZM24.4633 21.8158H25.3557L25.2466 21.5043L25.1805 21.3146C25.0553 20.97 24.9641 20.702 24.9068 20.5105C24.8568 20.6741 24.7584 20.97 24.6064 21.3981L24.5671 21.5112L24.4616 21.8141L24.4633 21.8158Z" fill="white"/>
<path d="M28.4248 20.5488H27.1539V22.7939H26.6258V20.1016H28.4248V20.5488Z" fill="white"/>
<path d="M30.8659 20.3348C31.0375 20.4897 31.1233 20.695 31.1233 20.9509C31.1233 21.2067 31.0375 21.4103 30.8659 21.5652C30.6944 21.7201 30.4631 21.7967 30.174 21.7967H29.3534V22.7939H28.7846V20.1016H30.174C30.4631 20.1016 30.6944 20.1799 30.8659 20.3348ZM30.0714 20.5419H29.3515V21.3581H30.0714C30.2225 21.3581 30.3419 21.3233 30.4295 21.2519C30.5153 21.1806 30.5601 21.0814 30.5601 20.9526C30.5601 20.8238 30.5172 20.7229 30.4314 20.6515C30.3456 20.5802 30.2262 20.5436 30.0714 20.5436V20.5419Z" fill="white"/>
<path d="M34.0017 21.5375C34.007 21.95 33.8834 22.2916 33.6344 22.5678C33.3837 22.8422 33.057 22.9785 32.6544 22.9732C32.25 22.9785 31.9216 22.844 31.6708 22.5696C31.4201 22.2952 31.2982 21.9517 31.3035 21.5375C31.2982 21.1232 31.4218 20.7797 31.6708 20.5053C31.9216 20.2309 32.2482 20.0964 32.6544 20.1017C33.057 20.0964 33.3837 20.2309 33.6344 20.5071C33.8852 20.7815 34.007 21.125 34.0017 21.5375ZM32.0752 20.8435C31.9304 21.0188 31.858 21.2489 31.858 21.5375C31.858 21.826 31.9304 22.0562 32.0752 22.2314C32.22 22.4067 32.4125 22.4934 32.6544 22.4934C32.8963 22.4934 33.0853 22.4067 33.23 22.2314C33.3748 22.0562 33.4473 21.826 33.4473 21.5375C33.4473 21.2489 33.3748 21.0188 33.23 20.8435C33.0853 20.6682 32.8928 20.5815 32.6544 20.5815C32.416 20.5815 32.22 20.6682 32.0752 20.8435Z" fill="white"/>
<path d="M36.7002 21.5304C36.7057 21.9464 36.5773 22.2934 36.3168 22.5678C36.0563 22.8422 35.7133 22.9785 35.2896 22.9732C35.0732 22.9732 34.8806 22.9378 34.7081 22.8652C34.5357 22.7926 34.3615 22.6758 34.1817 22.5147L34.51 22.1482C34.6751 22.2792 34.8109 22.3713 34.9173 22.4226C35.031 22.474 35.1594 22.5005 35.3006 22.5005C35.5299 22.5005 35.717 22.4315 35.8637 22.2916C36.0105 22.1518 36.1004 21.9623 36.1315 21.7198H34.9283V21.2684H36.1187C36.0765 21.0524 35.9811 20.8842 35.8344 20.7603C35.6876 20.6364 35.5061 20.5762 35.2914 20.5762C35.1612 20.5762 35.0401 20.5992 34.9283 20.6434C34.8164 20.6877 34.6916 20.7691 34.5522 20.8842L34.2239 20.5107C34.3945 20.3637 34.5614 20.2593 34.7228 20.1955C34.8861 20.1318 35.0713 20.1017 35.2823 20.1017C35.7115 20.0964 36.0563 20.2292 36.315 20.5018C36.5754 20.7727 36.702 21.1161 36.6965 21.5304H36.7002Z" fill="white"/>
<path d="M39.1137 22.7939L38.2408 21.6035H37.8053V22.7939H37.24V20.1016H37.8053V21.1562H38.2501L39.0785 20.1016H39.7197L38.7134 21.3685L39.7587 22.7939H39.1119H39.1137Z" fill="white"/>
<path d="M42.2772 21.5375C42.2825 21.95 42.1589 22.2916 41.9099 22.5678C41.6591 22.8422 41.3324 22.9785 40.9298 22.9732C40.5255 22.9785 40.197 22.844 39.9463 22.5696C39.6955 22.2952 39.5737 21.9517 39.579 21.5375C39.5737 21.1232 39.6973 20.7797 39.9463 20.5053C40.197 20.2309 40.5237 20.0964 40.9298 20.1017C41.3324 20.0964 41.6591 20.2309 41.9099 20.5071C42.1606 20.7815 42.2825 21.125 42.2772 21.5375ZM40.3524 20.8435C40.2076 21.0188 40.1352 21.2489 40.1352 21.5375C40.1352 21.826 40.2076 22.0562 40.3524 22.2314C40.4972 22.4067 40.6897 22.4934 40.9316 22.4934C41.1735 22.4934 41.3625 22.4067 41.5073 22.2314C41.6521 22.0562 41.7245 21.826 41.7245 21.5375C41.7245 21.2489 41.6521 21.0188 41.5073 20.8435C41.3625 20.6682 41.17 20.5815 40.9316 20.5815C40.6932 20.5815 40.4972 20.6682 40.3524 20.8435Z" fill="white"/>
<path d="M45.1558 22.7939H44.5377L43.8056 21.7521L43.0682 22.7939H42.4573L43.4731 21.3642L42.5639 20.1016H43.1857L43.8111 20.992L44.4328 20.1016H45.0474L44.1328 21.3677L45.1522 22.7921L45.1558 22.7939Z" fill="white"/>
<path d="M47.8542 21.5375C47.8595 21.95 47.7359 22.2916 47.4869 22.5678C47.2361 22.8422 46.9094 22.9785 46.5068 22.9732C46.1025 22.9785 45.774 22.844 45.5233 22.5696C45.2725 22.2952 45.1507 21.9517 45.156 21.5375C45.1507 21.1232 45.2743 20.7797 45.5233 20.5053C45.774 20.2309 46.1007 20.0964 46.5068 20.1017C46.9094 20.0964 47.2361 20.2309 47.4869 20.5071C47.7376 20.7815 47.8595 21.125 47.8542 21.5375ZM45.9276 20.8435C45.7828 21.0188 45.7104 21.2489 45.7104 21.5375C45.7104 21.826 45.7828 22.0562 45.9276 22.2314C46.0724 22.4067 46.2649 22.4934 46.5068 22.4934C46.7488 22.4934 46.9377 22.4067 47.0825 22.2314C47.2273 22.0562 47.2997 21.826 47.2997 21.5375C47.2997 21.2489 47.2273 21.0188 47.0825 20.8435C46.9377 20.6682 46.7452 20.5815 46.5068 20.5815C46.2684 20.5815 46.0724 20.6682 45.9276 20.8435Z" fill="white"/>
<path d="M48.0343 22.9294L48.0871 22.459C48.1452 22.47 48.2068 22.4755 48.2719 22.4755C48.3634 22.4755 48.4303 22.4462 48.4708 22.3876C48.5112 22.3346 48.5376 22.2595 48.55 22.1644C48.5623 22.0692 48.5693 21.9081 48.5711 21.6811L48.5781 20.1016H50.5529V22.9331H50.0161V20.572H49.0797L49.0727 21.7525C49.0674 22.1881 49.0146 22.4993 48.9161 22.6842C48.8157 22.869 48.6257 22.966 48.344 22.9734C48.2367 22.9734 48.1328 22.9587 48.0343 22.9294Z" fill="white"/>
<path d="M51.458 20.1034H53.4504V22.4547H53.7912V23.5118H53.2603V22.9231H51.4436V23.5118H50.9128V22.4547H51.1584C51.2463 22.3198 51.3181 22.1612 51.3701 21.9771C51.4221 21.7894 51.449 21.5251 51.4526 21.1824L51.4597 20.1016L51.458 20.1034ZM51.7198 22.4547H52.9035V20.5718H51.9691L51.9619 21.1988C51.9601 21.5397 51.935 21.8112 51.8884 22.0099C51.8471 22.1867 51.7915 22.3362 51.7198 22.4547Z" fill="white"/>
<path d="M55.8965 20.1016H56.4897V22.7939H55.9592V21.8645C55.9592 21.3999 55.9682 21.017 55.9861 20.7194C55.8427 20.977 55.651 21.3007 55.4126 21.6905L54.7334 22.7939H54.1509V20.1016H54.6814V21.0796C54.6814 21.5443 54.6742 21.9011 54.6581 22.15C54.7854 21.9063 54.9574 21.6139 55.1743 21.2693L55.8965 20.1016Z" fill="white"/>
<path d="M59.548 20.1016V22.7939H58.9997V21.6035H57.7576V22.7939H57.2093V20.1016H57.7576V21.1562H58.9997V20.1016H59.548Z" fill="white"/>
<path d="M61.8868 20.5488H60.6159V22.7939H60.0878V20.1016H61.8868V20.5488Z" fill="white"/>
<path d="M63.1479 22.7904V20.1016H65.1045V20.5483H63.6889V21.1323H64.3878C64.6628 21.1323 64.8845 21.207 65.053 21.3565C65.2215 21.5059 65.3049 21.7076 65.3049 21.9631C65.3049 22.2186 65.2215 22.4202 65.053 22.5697C64.8863 22.7191 64.6645 22.7939 64.3878 22.7939H63.1461L63.1479 22.7904ZM63.6889 22.3524H64.2991C64.4464 22.3524 64.5599 22.3194 64.6415 22.2516C64.7231 22.1855 64.7639 22.0882 64.7639 21.9613C64.7639 21.8344 64.7231 21.7388 64.6415 21.6711C64.5599 21.605 64.4464 21.5703 64.2991 21.5703H63.6889V22.3507V22.3524Z" fill="white"/>
<path d="M67.2734 20.1052H67.8235L66.7762 22.3885C66.7013 22.541 66.6373 22.6555 66.5807 22.73C66.5258 22.8044 66.4527 22.8644 66.365 22.9061C66.2773 22.9479 66.1639 22.9715 66.0269 22.9734C65.9081 22.9734 65.7765 22.9534 65.6375 22.9134L65.7417 22.4502C65.8404 22.4738 65.9245 22.4866 65.9958 22.4866C66.0726 22.4866 66.1365 22.472 66.1859 22.4411C66.2352 22.4103 66.2773 22.354 66.3156 22.2722L66.3321 22.2359L65.3049 20.1016H65.8861L66.5953 21.6383L67.277 20.1016L67.2734 20.1052Z" fill="white"/>
<path d="M68.1889 20.1034H70.1814V22.4547H70.5221V23.5118H69.9913V22.9231H68.1745V23.5118H67.6437V22.4547H67.8894C67.9773 22.3198 68.049 22.1612 68.101 21.9771C68.153 21.7894 68.1799 21.5251 68.1835 21.1824L68.1907 20.1016L68.1889 20.1034ZM68.4507 22.4547H69.6344V20.5718H68.7L68.6928 21.1988C68.691 21.5397 68.6659 21.8112 68.6193 22.0099C68.5781 22.1867 68.5225 22.3362 68.4507 22.4547Z" fill="white"/>
<path d="M72.4906 20.1052H73.0408L71.9935 22.3885C71.9186 22.541 71.8546 22.6555 71.7979 22.73C71.7431 22.8044 71.67 22.8644 71.5823 22.9061C71.4945 22.9479 71.3812 22.9715 71.2441 22.9734C71.1253 22.9734 70.9937 22.9534 70.8548 22.9134L70.959 22.4502C71.0577 22.4738 71.1418 22.4866 71.213 22.4866C71.2898 22.4866 71.3538 22.472 71.4031 22.4411C71.4525 22.4103 71.4945 22.354 71.5329 22.2722L71.5494 22.2359L70.5222 20.1016H71.1034L71.8126 21.6383L72.4943 20.1016L72.4906 20.1052Z" fill="white"/>
<path d="M76.8249 23.5118V22.9228H73.4005V20.1016H73.954V22.4541H74.9303V20.1016H75.4838V22.4541H76.4601V20.1016H77.0136V22.4541H77.3584V23.5118H76.8249Z" fill="white"/>
<path d="M79.6544 20.1016V20.5488H78.2615V21.1788H79.5654V21.6261H78.2615V22.3466H79.6972V22.7939H77.7182V20.1016H79.6544Z" fill="white"/>
<path d="M82.0359 20.5488H80.765V22.7939H80.2369V20.1016H82.0359V20.5488Z" fill="white"/>
<path d="M84.9142 21.5375C84.9195 21.95 84.7959 22.2916 84.5469 22.5678C84.2961 22.8422 83.9694 22.9785 83.5668 22.9732C83.1625 22.9785 82.834 22.844 82.5833 22.5696C82.3325 22.2952 82.2107 21.9517 82.216 21.5375C82.2107 21.1232 82.3343 20.7797 82.5833 20.5053C82.834 20.2309 83.1607 20.0964 83.5668 20.1017C83.9694 20.0964 84.2961 20.2309 84.5469 20.5071C84.7976 20.7815 84.9195 21.125 84.9142 21.5375ZM82.9876 20.8435C82.8428 21.0188 82.7704 21.2489 82.7704 21.5375C82.7704 21.826 82.8428 22.0562 82.9876 22.2314C83.1324 22.4067 83.3249 22.4934 83.5668 22.4934C83.8088 22.4934 83.9977 22.4067 84.1425 22.2314C84.2873 22.0562 84.3597 21.826 84.3597 21.5375C84.3597 21.2489 84.2873 21.0188 84.1425 20.8435C83.9977 20.6682 83.8052 20.5815 83.5668 20.5815C83.3284 20.5815 83.1324 20.6682 82.9876 20.8435Z" fill="white"/>
</svg>
