<svg width="119" height="90" viewBox="0 0 119 90" fill="none" xmlns="http://www.w3.org/2000/svg">
<path d="M115.466 27.4827C113.201 22.1241 109.96 17.312 105.832 13.1799C101.703 9.04789 96.895 5.80335 91.5419 3.53679C85.9985 1.1899 80.1108 0 74.0422 0C64.3327 0 58.6175 2.23556 58.3792 2.33108C57.825 2.55185 57.5557 3.18001 57.7757 3.73479C57.9956 4.28957 58.6238 4.56095 59.1781 4.34081C59.192 4.33512 60.5824 3.78983 63.0997 3.2515C65.4217 2.75491 69.2049 2.16345 74.0416 2.16345C77.4759 2.16345 80.8496 2.56387 84.1291 3.35714C79.8175 6.53335 70.9764 6.07979 70.089 6.06651C69.1259 6.05132 68.1349 6.2449 67.3581 6.76235C66.9549 7.0312 66.6225 7.37849 66.3185 7.74033C65.179 9.11115 64.4345 10.7546 64.181 12.4607C64.1077 12.9503 64.0761 13.4551 64.2139 13.9353C64.4591 14.7949 64.6304 15.4149 65.4103 15.9507C66.1428 16.4542 66.9473 16.0348 67.3291 15.9311C67.6274 15.8488 67.9484 15.907 68.2518 15.9646C68.5368 16.019 68.8339 16.0791 69.0608 16.2461C69.3679 16.4726 69.4874 16.8578 69.464 17.2158V17.2209C69.4475 17.4664 69.2244 17.6599 68.9539 17.684C67.9914 17.763 67.3082 18.2887 66.8639 18.8119C66.3115 19.4596 66.0195 20.3022 65.313 20.807C64.449 21.4213 63.1344 21.4036 62.4127 22.1544C61.7326 22.8598 61.9709 24.1224 62.8709 24.5798C63.0757 24.6854 63.3127 24.7563 63.4669 24.9214C63.7544 25.232 63.5806 25.7469 63.2191 25.9886C62.8595 26.2283 62.3842 26.2644 61.938 26.2701C61.4893 26.2758 61.0248 26.2599 60.6159 26.4219C60.0307 26.654 59.6635 27.2177 59.5611 27.7927C59.2906 29.328 60.7891 30.8101 62.4765 31.0309C64.1627 31.2529 65.859 30.4483 67.0055 29.2957C67.5541 28.7435 68.0129 28.1046 68.6746 27.6636C69.3351 27.224 70.2932 27.033 70.958 27.4675C71.2721 27.6744 71.4801 27.9932 71.7797 28.2197C72.0773 28.4455 72.4786 28.5689 72.8578 28.4999C73.2358 28.4297 73.5708 28.1394 73.6074 27.7895C73.627 27.6054 73.5695 27.4188 73.5771 27.2329C73.5992 26.7413 74.1054 26.346 74.6401 26.2783C75.1754 26.2112 75.7133 26.4105 76.1582 26.6876C77.67 27.6358 78.264 29.3761 79.2803 30.769C79.3384 30.8512 79.4016 30.9329 79.4889 30.9866C79.8276 31.1878 80.2605 30.8569 80.4059 30.5153C80.5519 30.1731 80.5955 29.7638 80.9077 29.5298C81.3596 29.1869 82.0763 29.469 82.434 29.8935C82.7905 30.3218 82.9516 30.8652 83.3163 31.2865C83.777 31.8191 84.5215 32.0968 85.2597 32.1632C86.0004 32.2271 86.7437 32.0981 87.4667 31.9456C87.5868 31.9197 87.7283 31.8975 87.8187 31.9747C87.8756 32.0241 87.892 32.0987 87.904 32.1696C88.0557 33.0134 88.0279 33.8826 87.8301 34.7208C87.6468 35.497 86.755 35.9512 85.9252 35.7101C84.3964 35.2661 83.2506 34.5354 81.9815 34.2046C81.668 34.123 81.3406 34.0414 81.0253 34.111C80.6183 34.2027 80.3339 34.519 80.0254 34.7752C78.9649 35.6602 77.3287 35.9176 76.0027 35.4103C75.0585 35.0453 74.3064 34.3033 73.938 33.4316C73.6763 32.8104 72.9906 32.4258 72.2657 32.5162C69.5398 32.8528 66.8159 33.1912 64.0875 33.529C62.7578 33.6935 61.3086 33.9142 60.4149 34.8283C59.6609 35.5988 59.4783 36.69 59.0365 37.6421C58.3331 39.1476 56.9566 40.3147 56.1729 41.7874C55.1383 43.732 55.2331 46.0042 55.4821 48.155C55.7861 50.7803 56.5255 53.7205 59.0157 55.0635C60.9332 56.0965 63.3443 55.865 65.5304 55.4741C67.7171 55.0831 69.9936 54.5701 72.1323 55.1362C72.4723 55.2273 72.8123 55.3475 73.0746 55.5632C74.2552 56.5305 73.1214 58.3517 73.572 59.7402C73.8248 60.5196 74.5586 61.0775 75.025 61.7715C76.0198 63.2391 75.7227 65.14 75.1407 66.7803C74.5573 68.4231 73.7117 70.0368 73.6984 71.7613C73.6807 74.1303 75.226 76.4816 75.4333 78.7488C75.5205 79.7059 76.4571 80.3973 77.5037 80.2974C80.4938 80.0146 83.3656 78.4945 84.9431 76.147C85.4828 75.3436 85.8829 74.4605 86.5041 73.709C87.2392 72.8202 88.2478 72.156 89.1554 71.4114C90.3758 70.4063 91.4742 69.1518 91.6973 67.6634C91.9476 65.9769 91.0318 64.3062 91.1171 62.6058C91.2202 60.586 92.6852 58.8761 93.9599 57.2232C95.7377 54.9186 97.2596 52.4534 98.4984 49.8719C98.5786 49.7049 98.6595 49.5227 98.6121 49.343C98.4699 48.8167 97.6199 48.9957 97.0378 49.1083C95.3307 49.4347 93.8398 48.0291 92.9449 46.6646C91.753 44.8447 90.9054 42.835 90.4592 40.7544C93.1219 41.3566 95.5235 42.8495 97.1408 44.8675C97.4549 45.2616 98.037 45.3792 98.499 45.1382C98.9408 44.9061 99.3857 44.6815 99.8376 44.4664C100.233 44.2747 100.454 43.8705 100.369 43.4714C99.9336 41.3389 98.8472 39.3184 97.2508 37.7072C101.879 36.6635 104.688 38.4543 105.995 43.1968C106.744 45.9112 104.191 50.636 110.116 50.6904C113.046 52.1568 115.145 51.7083 116.423 51.0187C115.909 54.6802 114.925 58.246 113.478 61.6728C111.322 66.7733 108.236 71.3545 104.305 75.2886C100.375 79.2226 95.7978 82.3115 90.7019 84.4693C85.4266 86.7023 79.8219 87.8353 74.0441 87.8353C68.2663 87.8353 62.6617 86.703 57.3863 84.4693C52.2905 82.3115 47.7135 79.2233 43.783 75.2886C39.8526 71.3545 36.7665 66.7733 34.6114 61.6728C32.8525 57.5103 31.7774 53.143 31.4008 48.6478C31.4008 48.6459 31.4008 48.644 31.4008 48.6427C31.2996 47.437 31.2491 46.2225 31.2491 45.0003C31.2491 37.2948 33.3157 29.7404 37.226 23.1533C37.5306 22.6396 37.3619 21.9761 36.8487 21.6705C36.3355 21.3656 35.6725 21.5345 35.3672 22.0482C33.3505 25.4458 31.8021 29.0876 30.7466 32.873C28.6566 30.9695 27.2333 28.6201 26.6847 26.1258C26.0268 23.1381 26.8162 20.015 28.6951 18.1692C30.0344 16.854 31.5461 16.2119 33.147 15.5319C34.4913 14.9607 35.8823 14.3705 37.1375 13.3615C38.7219 12.0881 39.9897 10.4826 40.805 8.71831C41.2993 7.64797 41.6032 6.56498 41.7107 5.50603C44.3759 7.72705 45.7385 10.4737 46.8641 13.8037C47.4626 15.5737 47.7881 17.7599 47.7571 19.8019C47.7173 22.448 47.1238 24.8012 45.9944 26.7964C44.13 30.0884 40.8493 32.2638 36.2419 33.262C35.6586 33.3886 35.2882 33.9642 35.4146 34.5481C35.541 35.132 36.1162 35.5033 36.6995 35.3761C41.9338 34.2419 45.6936 31.7141 47.8746 27.8629C50.6586 22.9464 50.1733 16.8426 48.9118 13.1097C47.6174 9.28068 45.7783 5.33587 41.1229 2.41964C40.7576 2.19065 40.2918 2.2014 39.9366 2.44558C39.5815 2.69039 39.4058 3.12245 39.4892 3.54565C40.0119 6.20631 38.5235 9.47298 35.7844 11.6738C34.7624 12.4955 33.5679 13.0028 32.3033 13.5399C30.5874 14.2686 28.8127 15.022 27.1815 16.6244C25.944 17.8402 25.0561 19.4539 24.6136 21.291C24.2016 23.004 24.1877 24.8366 24.5738 26.5908C25.2931 29.8613 27.2668 32.8996 30.1601 35.2136C29.4504 38.4107 29.0876 41.6919 29.0876 45.0003C29.0876 45.0142 29.0876 45.0288 29.0876 45.0427C28.2799 44.0445 27.3894 43.107 26.4288 42.2441C26.6424 38.2481 25.5699 34.8947 23.2346 32.2714C21.7229 30.5729 19.7409 29.247 17.3437 28.3304C14.851 27.3771 12.7104 27.1747 11.6556 27.1392C8.09996 27.0197 4.27822 27.3145 0.425506 30.256C0.0829585 30.5172 -0.071883 30.9575 0.031766 31.3763C0.135415 31.7951 0.47733 32.112 0.902671 32.1828C3.1918 32.5656 5.36211 34.7549 6.30316 37.6313C6.65456 38.7042 6.70133 39.8302 6.74999 41.0226C6.81446 42.5895 6.88777 44.3652 7.70622 46.2187C8.32938 47.6306 9.39241 48.8749 10.7803 49.8181C12.0715 50.6949 13.5858 51.2787 15.1595 51.5052C15.7226 51.5868 16.2933 51.6267 16.8678 51.6267C19.4672 51.6267 22.1419 50.8024 24.5536 49.2355C25.0542 48.9103 25.1964 48.2404 24.8715 47.7394C24.5467 47.2384 23.8774 47.0954 23.3768 47.4212C20.8715 49.0489 18.0629 49.739 15.4673 49.3645C12.8659 48.99 10.5958 47.4124 9.68313 45.3451C9.03027 43.8667 8.97149 42.4421 8.90956 40.9341C8.85647 39.6467 8.80149 38.3158 8.35655 36.9582C7.79659 35.2477 6.86312 33.696 5.65662 32.47C4.98859 31.7913 4.26242 31.2403 3.49895 30.8297C6.04025 29.4532 8.62073 29.2027 11.5817 29.3027C14.4889 29.4007 18.8624 30.6147 21.6192 33.7118C23.246 35.5393 24.134 37.8236 24.2724 40.521C21.4941 38.5467 18.3328 37.1923 15.1133 36.6015C14.5262 36.4933 13.9631 36.8823 13.855 37.47C13.7476 38.0577 14.1356 38.6213 14.7228 38.7295C17.7001 39.276 20.6289 40.5482 23.1929 42.408C25.6659 44.202 27.7623 46.5154 29.2696 49.1064C29.6855 53.7325 30.8067 58.2283 32.6193 62.5173C34.8838 67.8759 38.1253 72.688 42.2536 76.8201C46.3818 80.9521 51.1902 84.1966 56.5432 86.4632C62.0866 88.8101 67.9743 90 74.0429 90C80.1114 90 85.9992 88.8101 91.5425 86.4632C96.8962 84.1966 101.704 80.9521 105.832 76.8201C109.96 72.688 113.202 67.8753 115.466 62.5173C117.811 56.9689 119 51.0757 119 45.0016C119 38.9275 117.811 33.0343 115.466 27.4859L115.466 27.4827Z" fill="#1A7430"/>
</svg>
