<svg width="71" height="66" viewBox="0 0 71 66" fill="none" xmlns="http://www.w3.org/2000/svg">
<path d="M35.5 50.163V63M42.9913 19.7715L45.991 18.5456M45.991 11.1772L42.9913 9.94801M51.269 5.96534L50.0242 3M51.269 23.7574L50.0242 26.7195M58.731 5.96534L59.9758 3M59.9725 26.7227L58.731 23.7574M64.009 11.1772L67.012 9.94801M64.009 18.5456L67.012 19.7747M68 37.3261V43.7445C68 45.4468 67.3152 47.0794 66.0962 48.2831C64.8772 49.4868 63.2239 50.163 61.5 50.163H9.5C7.77609 50.163 6.12279 49.4868 4.90381 48.2831C3.68482 47.0794 3 45.4468 3 43.7445V11.6521C3 9.94983 3.68482 8.31726 4.90381 7.11356C6.12279 5.90986 7.77609 5.23363 9.5 5.23363H32.25M22.5 63H48.5M64.75 14.8614C64.75 20.1786 60.3848 24.4891 55 24.4891C49.6152 24.4891 45.25 20.1786 45.25 14.8614C45.25 9.54411 49.6152 5.23363 55 5.23363C60.3848 5.23363 64.75 9.54411 64.75 14.8614Z" stroke="#1A7430" stroke-width="5" stroke-linecap="round" stroke-linejoin="round"/>
</svg>
