<svg width="55" height="68" viewBox="0 0 55 68" fill="none" xmlns="http://www.w3.org/2000/svg">
<path d="M18.3125 33.9962L24.4375 40.1952L36.6875 27.7972M52 37.0957C52 52.5931 41.2812 60.3418 28.5413 64.836C27.8741 65.0648 27.1495 65.0539 26.4894 64.805C13.7188 60.3418 3 52.5931 3 37.0957V15.3993C3 14.5773 3.32266 13.7889 3.89699 13.2077C4.47132 12.6264 5.25027 12.2998 6.0625 12.2998C12.1875 12.2998 19.8437 8.58046 25.1725 3.86925C25.8213 3.30824 26.6466 3 27.5 3C28.3534 3 29.1787 3.30824 29.8275 3.86925C35.1869 8.61145 42.8125 12.2998 48.9375 12.2998C49.7497 12.2998 50.5287 12.6264 51.103 13.2077C51.6773 13.7889 52 14.5773 52 15.3993V37.0957Z" stroke="#1A7430" stroke-width="5" stroke-linecap="round" stroke-linejoin="round"/>
</svg>
