<svg width="91" height="96" viewBox="0 0 91 96" fill="none" xmlns="http://www.w3.org/2000/svg">
<path d="M15.1345 45.8738C7.38143 47.2843 0.190622 44.2846 0.190622 44.2846C0.190622 44.2846 3.95237 38.6057 10.3309 35.2947C4.095 32.4454 0.178467 27.4465 0.178467 27.4465C0.178467 27.4465 8.57304 23.1203 17.3178 25.0304C17.4468 25.0634 17.5758 25.0963 17.7048 25.1293C17.6552 25.0791 17.6056 25.029 17.5516 24.9715C11.6031 18.2726 11.2807 8.85758 11.2807 8.85758C11.2807 8.85758 20.463 10.2798 26.4168 16.8363C25.5964 7.97486 30.8373 0.206543 30.8373 0.206543C30.8373 0.206543 35.3092 4.64772 37.4154 11.1267C41.4465 5.34792 47.3576 2.37346 47.3576 2.37346C47.3576 2.37346 49.5376 10.0019 47.121 17.5988C60.0097 13.2655 69.0926 19.0225 75.4073 26.121C75.578 26.3083 75.7456 26.5073 75.9103 26.7181C75.9525 26.7726 75.9991 26.8345 76.0487 26.8847C76.1755 27.0482 76.3022 27.2118 76.4333 27.3827C76.4843 27.452 76.5309 27.5139 76.5819 27.5831C76.7261 27.7761 76.879 27.9839 77.0202 28.1886C77.0464 28.2328 77.0799 28.2726 77.1134 28.3124C77.2925 28.5643 77.4729 28.8353 77.6534 29.1063C77.6882 29.1652 77.7231 29.2241 77.758 29.283C77.9005 29.5068 78.0431 29.7306 78.1856 29.9545C78.238 30.0428 78.2946 30.1385 78.347 30.2268C78.4778 30.4477 78.6086 30.6685 78.7438 30.8967C78.7961 30.985 78.8441 31.066 78.8964 31.1543C79.0795 31.4635 79.2627 31.7727 79.4354 32.0979C79.4747 32.1642 79.5139 32.2304 79.5488 32.2893C79.6971 32.5396 79.8349 32.806 79.9772 33.0797C80.06 33.2196 80.1238 33.3608 80.1993 33.505C80.3053 33.7008 80.4083 33.9083 80.5186 34.1114C80.6028 34.2703 80.6797 34.4336 80.7682 34.5999C80.8625 34.7927 80.9611 34.9928 81.0554 35.1856C81.2265 35.5416 81.4137 35.9081 81.5818 36.2759C81.6412 36.4097 81.708 36.5392 81.7717 36.6805C81.8892 36.9291 82.0036 37.1895 82.121 37.4381C82.1747 37.5455 82.221 37.6573 82.2673 37.7691C82.3905 38.0442 82.518 38.3267 82.6455 38.6091C82.6804 38.668 82.7005 38.7356 82.7324 38.8062C86.5749 47.578 89.9396 58.9199 90.5815 69.16C90.5815 69.16 90.5755 69.1835 90.5725 69.1952C91.1446 78.343 89.5505 86.606 84.1955 91.3593C69.0306 104.837 29.4232 85.0321 20.4383 74.9211C14.0813 67.7681 9.19398 58.1733 15.0994 45.8648L15.1345 45.8738Z" fill="#1A7430"/>
<path d="M73.5541 81.9124C73.8328 81.6872 74.2857 81.6164 74.8705 81.8127C75.4483 82.0068 76.0827 82.4452 76.6107 83.0989C77.0735 83.6719 77.1882 84.5041 77.1556 85.2717C77.1398 85.6445 77.09 85.9777 77.0443 86.218C77.0435 86.2222 77.0422 86.2266 77.0414 86.2307C77.0375 86.2306 77.0336 86.2308 77.0297 86.2307C76.7851 86.2249 76.4483 86.2029 76.0804 86.1399C75.3232 86.0102 74.5335 85.7236 74.0707 85.1506C73.5426 84.4968 73.2482 83.7837 73.1801 83.178C73.1111 82.565 73.2753 82.1375 73.5541 81.9124ZM55.6898 79.4514C55.9686 79.2264 56.4207 79.1556 57.0052 79.3518C57.5831 79.5459 58.2184 79.9841 58.7465 80.6379C59.2092 81.2109 59.3239 82.0432 59.2914 82.8108C59.2756 83.1835 59.2258 83.5168 59.1801 83.7571C59.1793 83.7613 59.1779 83.7656 59.1771 83.7698C59.173 83.7697 59.1686 83.7699 59.1644 83.7698C58.9199 83.7639 58.5838 83.7419 58.2162 83.679C57.459 83.5493 56.6692 83.2626 56.2064 82.6897C55.6784 82.0359 55.384 81.3228 55.3158 80.717C55.2469 80.1041 55.4111 79.6766 55.6898 79.4514ZM36.8734 75.6428C37.1522 75.4177 37.6051 75.3469 38.1898 75.5432C38.7677 75.7373 39.403 76.1756 39.931 76.8293C40.3937 77.4023 40.5075 78.2347 40.475 79.0022C40.4592 79.3749 40.4103 79.7082 40.3646 79.9485C40.3638 79.9527 40.3625 79.9571 40.3617 79.9612C40.3575 79.9611 40.3533 79.9613 40.349 79.9612C40.1044 79.9553 39.7677 79.9333 39.3998 79.8704C38.6426 79.7407 37.8527 79.454 37.39 78.8811C36.862 78.2273 36.5675 77.5142 36.4994 76.9084C36.4305 76.2956 36.5948 75.868 36.8734 75.6428ZM59.3705 64.3528C59.6493 64.1277 60.1022 64.0578 60.6869 64.2542C61.2647 64.4482 61.9001 64.8865 62.4281 65.5403C62.8906 66.1133 63.0046 66.9457 62.972 67.7131C62.9562 68.0859 62.9074 68.4192 62.8617 68.6594C62.8609 68.6637 62.8596 68.6679 62.8588 68.6721C62.8546 68.672 62.8503 68.6722 62.8461 68.6721C62.6015 68.6663 62.2647 68.6443 61.8969 68.5813C61.1397 68.4516 60.3498 68.1649 59.8871 67.592C59.3591 66.9383 59.0647 66.2251 58.9965 65.6194C58.9275 65.0064 59.0917 64.5779 59.3705 64.3528ZM74.9086 63.9319C75.1873 63.7069 75.6395 63.6361 76.224 63.8323C76.8019 64.0263 77.4371 64.4646 77.9652 65.1184C78.428 65.6914 78.5427 66.5236 78.5101 67.2913C78.4943 67.664 78.4445 67.9973 78.3988 68.2375C78.398 68.2417 78.3967 68.2461 78.3959 68.2502C78.3918 68.2502 78.3873 68.2503 78.3832 68.2502C78.1387 68.2444 77.8026 68.2224 77.4349 68.1594C76.6777 68.0298 75.888 67.7431 75.4252 67.1702C74.8971 66.5164 74.6027 65.8033 74.5345 65.1975C74.4656 64.5845 74.6298 64.157 74.9086 63.9319ZM42.1849 61.2268C42.4637 61.0017 42.9166 60.9308 43.5013 61.1272C44.0791 61.3213 44.7136 61.7597 45.2416 62.4133C45.7044 62.9863 45.8191 63.8185 45.7865 64.5862C45.7707 64.9589 45.7209 65.2922 45.6752 65.5325C45.6744 65.5367 45.673 65.541 45.6722 65.5452C45.6684 65.5451 45.6645 65.5453 45.6605 65.5452C45.416 65.5393 45.0792 65.5173 44.7113 65.4543C43.954 65.3247 43.1643 65.038 42.7015 64.4651C42.1735 63.8113 41.8791 63.0982 41.8109 62.4924C41.742 61.8795 41.9062 61.452 42.1849 61.2268ZM24.225 59.0979C24.5037 58.8729 24.9559 58.8021 25.5404 58.9983C26.1183 59.1924 26.7535 59.6306 27.2816 60.2844C27.7444 60.8574 27.8591 61.6896 27.8265 62.4573C27.8107 62.83 27.7609 63.1633 27.7152 63.4036C27.7144 63.4078 27.7131 63.4121 27.7123 63.4163C27.7082 63.4162 27.7037 63.4164 27.6996 63.4163C27.4551 63.4104 27.119 63.3884 26.7513 63.3254C25.9941 63.1958 25.2044 62.9091 24.7416 62.3362C24.2135 61.6824 23.9191 60.9693 23.851 60.3635C23.782 59.7506 23.9462 59.323 24.225 59.0979ZM60.3949 46.8108C60.6737 46.5856 61.1266 46.5148 61.7113 46.7112C62.2892 46.9053 62.9245 47.3435 63.4525 47.9973C63.9152 48.5703 64.029 49.4026 63.9965 50.1702C63.9806 50.5431 63.9318 50.8771 63.8861 51.1174C63.8854 51.1214 63.8839 51.1252 63.8832 51.1292C63.879 51.1291 63.8747 51.1293 63.8705 51.1292C63.6259 51.1233 63.2891 51.1013 62.9213 51.0383C62.1641 50.9086 61.3742 50.622 60.9115 50.0491C60.3835 49.3953 60.089 48.6821 60.0209 48.0764C59.952 47.4635 60.1162 47.0359 60.3949 46.8108ZM76.3285 46.053C76.6072 45.8278 77.0601 45.757 77.6449 45.9534C78.2228 46.1475 78.8581 46.5857 79.3861 47.2395C79.8487 47.8125 79.9626 48.6448 79.9301 49.4124C79.9142 49.785 79.8654 50.1184 79.8197 50.3586C79.8189 50.3628 79.8176 50.3672 79.8168 50.3713C79.8126 50.3712 79.8083 50.3714 79.8041 50.3713C79.5595 50.3655 79.2227 50.3435 78.8549 50.2805C78.0977 50.1508 77.3078 49.8642 76.8451 49.2913C76.3171 48.6375 76.0226 47.9243 75.9545 47.3186C75.8855 46.7058 76.0499 46.2782 76.3285 46.053ZM42.6205 44.2385C42.8992 44.0134 43.3522 43.9426 43.9369 44.1389C44.5148 44.333 45.15 44.7712 45.6781 45.425C46.1408 45.998 46.2556 46.8303 46.223 47.5979C46.2072 47.9706 46.1574 48.3039 46.1117 48.5442C46.1109 48.5484 46.1096 48.5528 46.1088 48.5569C46.1046 48.5568 46.1003 48.557 46.0961 48.5569C45.8516 48.551 45.5155 48.529 45.1478 48.4661C44.3906 48.3364 43.6009 48.0496 43.1381 47.4768C42.61 46.823 42.3156 46.1099 42.2474 45.5042C42.1785 44.8914 42.3419 44.4637 42.6205 44.2385ZM27.8969 43.6604C28.1756 43.4353 28.6285 43.3644 29.2133 43.5608C29.7911 43.7549 30.4264 44.1932 30.9545 44.8469C31.4171 45.4199 31.531 46.2523 31.4984 47.0198C31.4826 47.3925 31.4338 47.7258 31.3881 47.9661C31.3873 47.9702 31.3859 47.9747 31.3851 47.9788C31.3809 47.9787 31.3767 47.9789 31.3724 47.9788C31.1279 47.9729 30.7911 47.9509 30.4232 47.8879C29.666 47.7583 28.8762 47.4716 28.4135 46.8987C27.8854 46.2449 27.591 45.5318 27.5228 44.926C27.4539 44.3131 27.6182 43.8856 27.8969 43.6604ZM61.0043 29.3909C61.283 29.1658 61.7352 29.0951 62.3197 29.2913C62.8976 29.4853 63.5328 29.9236 64.0609 30.5774C64.5237 31.1504 64.6384 31.9826 64.6058 32.7502C64.59 33.123 64.5402 33.4563 64.4945 33.6965C64.4937 33.7008 64.4924 33.7051 64.4916 33.7092C64.4877 33.7091 64.4838 33.7093 64.4799 33.7092C64.2353 33.7034 63.8985 33.6814 63.5306 33.6184C62.7734 33.4887 61.9837 33.2021 61.5209 32.6292C60.9928 31.9754 60.6984 31.2623 60.6302 30.6565C60.5613 30.0435 60.7255 29.616 61.0043 29.3909ZM45.348 29.2444C45.6268 29.0192 46.0797 28.9484 46.6644 29.1448C47.2423 29.3388 47.8776 29.7771 48.4056 30.4309C48.8683 31.0039 48.9821 31.8362 48.9496 32.6038C48.9338 32.9765 48.8849 33.3098 48.8392 33.55C48.8384 33.5542 48.8371 33.5586 48.8363 33.5627C48.8321 33.5627 48.8278 33.5628 48.8236 33.5627C48.5791 33.5569 48.2422 33.5349 47.8744 33.4719C47.1174 33.3422 46.3283 33.0553 45.8656 32.4827C45.3375 31.8289 45.0421 31.1158 44.974 30.51C44.9051 29.8972 45.0694 29.4696 45.348 29.2444Z" fill="white" stroke="#1A7430"/>
</svg>
