<svg width="120" height="132" viewBox="0 0 120 132" fill="none" xmlns="http://www.w3.org/2000/svg">
<path d="M28.1345 60.8739C20.3814 62.2844 13.1906 59.2847 13.1906 59.2847C13.1906 59.2847 16.9523 53.6058 23.3309 50.2948C17.095 47.4455 13.1784 42.4466 13.1784 42.4466C13.1784 42.4466 21.573 38.1204 30.3178 40.0305C30.4468 40.0634 30.5758 40.0964 30.7048 40.1294C30.6552 40.0792 30.6056 40.0291 30.5516 39.9715C24.603 33.2727 24.2806 23.8577 24.2806 23.8577C24.2806 23.8577 33.463 25.2799 39.4168 31.8364C38.5963 22.9749 43.8373 15.2066 43.8373 15.2066C43.8373 15.2066 48.3092 19.6478 50.4154 26.1267C54.4464 20.348 60.3575 17.3735 60.3575 17.3735C60.3575 17.3735 62.5376 25.002 60.1209 32.5989C73.0097 28.2656 82.0926 34.0226 88.4073 41.1211C88.5779 41.3084 88.7456 41.5074 88.9102 41.7182C88.9525 41.7727 88.9991 41.8346 89.0487 41.8847C89.1754 42.0483 89.3022 42.2119 89.4333 42.3828C89.4843 42.4521 89.5309 42.514 89.5819 42.5832C89.7261 42.7762 89.879 42.984 90.0202 43.1887C90.0463 43.2329 90.0799 43.2727 90.1134 43.3125C90.2925 43.5644 90.4729 43.8354 90.6533 44.1064C90.6882 44.1653 90.7231 44.2242 90.758 44.2831C90.9005 44.5069 91.0431 44.7307 91.1856 44.9546C91.2379 45.0429 91.2946 45.1386 91.3469 45.2269C91.4777 45.4478 91.6086 45.6686 91.7437 45.8968C91.7961 45.9851 91.844 46.0661 91.8963 46.1544C92.0795 46.4636 92.2626 46.7728 92.4354 47.098C92.4746 47.1643 92.5139 47.2305 92.5488 47.2894C92.697 47.5397 92.8349 47.8061 92.9771 48.0798C93.06 48.2196 93.1237 48.3609 93.1992 48.5051C93.3052 48.7009 93.4082 48.9083 93.5186 49.1115C93.6028 49.2704 93.6796 49.4337 93.7682 49.6C93.8625 49.7928 93.9611 49.9929 94.0554 50.1857C94.2265 50.5417 94.4137 50.9081 94.5818 51.2759C94.6412 51.4098 94.7079 51.5393 94.7717 51.6805C94.8891 51.9292 95.0036 52.1896 95.121 52.4382C95.1747 52.5456 95.221 52.6574 95.2673 52.7692C95.3904 53.0443 95.518 53.3268 95.6455 53.6092C95.6803 53.6681 95.7005 53.7357 95.7324 53.8063C99.5749 62.5781 102.94 73.92 103.581 84.1601C103.581 84.1601 103.575 84.1835 103.572 84.1953C104.145 93.343 102.55 101.606 97.1954 106.359C82.0305 119.837 42.4231 100.032 33.4382 89.9212C27.0813 82.7682 22.1939 73.1734 28.0993 60.8649L28.1345 60.8739Z" fill="#1A7430"/>
<path d="M74.0041 44.3906C74.2829 44.1656 74.7355 44.0954 75.3202 44.2918C75.898 44.4858 76.5332 44.9233 77.0612 45.577C77.524 46.15 77.6382 46.9832 77.6056 47.7508C77.5898 48.1234 77.5403 48.4564 77.4946 48.6966C77.4938 48.7009 77.4919 48.7052 77.4911 48.7094C77.4873 48.7094 77.4833 48.709 77.4794 48.7089C77.2349 48.703 76.8985 48.682 76.5306 48.6191C75.7733 48.4894 74.9835 48.2019 74.5207 47.6289C73.9927 46.9751 73.6987 46.2622 73.6306 45.6564C73.5616 45.0435 73.7254 44.6158 74.0041 44.3906Z" fill="white" stroke="#1A7430"/>
<path d="M58.3484 44.2442C58.6271 44.0191 59.0798 43.949 59.6644 44.1453C60.2422 44.3394 60.8774 44.7768 61.4054 45.4305C61.8682 46.0035 61.9824 46.8367 61.9499 47.6043C61.934 47.9769 61.8845 48.31 61.8388 48.5501C61.838 48.5544 61.8362 48.5587 61.8354 48.563C61.8315 48.5629 61.8276 48.5625 61.8236 48.5624C61.5791 48.5566 61.2427 48.5356 60.8749 48.4726C60.1176 48.3429 59.3278 48.0554 58.865 47.4824C58.337 46.8286 58.043 46.1157 57.9748 45.51C57.9059 44.897 58.0696 44.4693 58.3484 44.2442Z" fill="white" stroke="#1A7430"/>
<path d="M40.897 58.6602C41.1757 58.4351 41.6283 58.365 42.213 58.5613C42.7908 58.7554 43.426 59.1928 43.954 59.8465C44.4168 60.4195 44.531 61.2527 44.4984 62.0203C44.4826 62.3929 44.4331 62.726 44.3874 62.9661C44.3866 62.9704 44.3848 62.9748 44.384 62.979C44.3801 62.9789 44.3761 62.9785 44.3722 62.9784C44.1277 62.9726 43.7913 62.9516 43.4234 62.8886C42.6661 62.7589 41.8764 62.4714 41.4136 61.8984C40.8856 61.2446 40.5915 60.5317 40.5234 59.926C40.4545 59.313 40.6182 58.8853 40.897 58.6602Z" fill="white" stroke="#1A7430"/>
<path d="M73.3951 61.8108C73.6738 61.5857 74.1264 61.5156 74.7111 61.7119C75.2889 61.906 75.9241 62.3435 76.4521 62.9971C76.9149 63.5701 77.0291 64.4033 76.9965 65.171C76.9807 65.5435 76.9312 65.8766 76.8855 66.1168C76.8847 66.1211 76.8829 66.1254 76.8821 66.1296C76.8782 66.1295 76.8742 66.1291 76.8703 66.1291C76.6258 66.1232 76.2894 66.1022 75.9216 66.0392C75.1643 65.9096 74.3745 65.622 73.9117 65.049C73.3837 64.3953 73.0897 63.6823 73.0215 63.0766C72.9526 62.4636 73.1163 62.036 73.3951 61.8108Z" fill="white" stroke="#1A7430"/>
<path d="M87.9082 78.9317C88.187 78.7066 88.6396 78.6364 89.2243 78.8328C89.8021 79.0269 90.4373 79.4643 90.9653 80.118C91.4281 80.691 91.5423 81.5242 91.5097 82.2918C91.4939 82.6644 91.4444 82.9975 91.3987 83.2376C91.3979 83.2419 91.3961 83.2462 91.3952 83.2505C91.3914 83.2504 91.3874 83.25 91.3835 83.2499C91.139 83.2441 90.8026 83.2231 90.4347 83.1601C89.6774 83.0304 88.8877 82.7429 88.4248 82.1699C87.8969 81.5161 87.6028 80.8032 87.5347 80.1975C87.4658 79.5845 87.6295 79.1568 87.9082 78.9317Z" fill="white" stroke="#1A7430"/>
<path d="M68.6894 94.4512C68.9682 94.2261 69.4208 94.156 70.0055 94.3523C70.5833 94.5464 71.2185 94.9839 71.7465 95.6375C72.2093 96.2105 72.3235 97.0437 72.2909 97.8114C72.2751 98.1839 72.2256 98.517 72.1799 98.7572C72.1791 98.7614 72.1772 98.7658 72.1764 98.77C72.1726 98.7699 72.1686 98.7695 72.1647 98.7694C71.9202 98.7636 71.5838 98.7426 71.2159 98.6796C70.4586 98.55 69.6688 98.2624 69.206 97.6894C68.6781 97.0357 68.384 96.3227 68.3159 95.717C68.247 95.104 68.4107 94.6763 68.6894 94.4512Z" fill="white" stroke="#1A7430"/>
<path d="M72.3707 79.3533C72.6495 79.1282 73.1021 79.0581 73.6868 79.2544C74.2646 79.4485 74.8998 79.886 75.4278 80.5396C75.8906 81.1126 76.0048 81.9458 75.9722 82.7135C75.9564 83.086 75.9069 83.4191 75.8612 83.6593C75.8603 83.6635 75.8585 83.6679 75.8577 83.6721C75.8538 83.672 75.8499 83.6716 75.846 83.6715C75.6014 83.6657 75.265 83.6447 74.8972 83.5817C74.1399 83.4521 73.3501 83.1645 72.8873 82.5915C72.3593 81.9378 72.0653 81.2248 71.9972 80.6191C71.9282 80.0061 72.092 79.5784 72.3707 79.3533Z" fill="white" stroke="#1A7430"/>
<path d="M86.5541 96.9121C86.8328 96.6871 87.2854 96.6169 87.8701 96.8133C88.4479 97.0073 89.0831 97.4448 89.6111 98.0984C90.0739 98.6714 90.1881 99.5047 90.1555 100.272C90.1397 100.645 90.0902 100.978 90.0445 101.218C90.0437 101.222 90.0419 101.227 90.0411 101.231C90.0372 101.231 90.0332 101.23 90.0293 101.23C89.7848 101.225 89.4484 101.204 89.0806 101.141C88.3232 101.011 87.5335 100.723 87.0707 100.15C86.5427 99.4966 86.2486 98.7836 86.1805 98.1779C86.1116 97.5649 86.2753 97.1373 86.5541 96.9121Z" fill="white" stroke="#1A7430"/>
<path d="M37.2247 74.0977C37.5035 73.8726 37.9561 73.8025 38.5408 73.9988C39.1186 74.1929 39.7538 74.6303 40.2818 75.284C40.7446 75.857 40.8588 76.6902 40.8262 77.4578C40.8104 77.8304 40.7609 78.1635 40.7152 78.4036C40.7143 78.4079 40.7125 78.4123 40.7117 78.4165C40.7078 78.4164 40.7039 78.416 40.7 78.4159C40.4554 78.4101 40.119 78.3891 39.7512 78.3261C38.9939 78.1964 38.2041 77.9089 37.7413 77.3359C37.2133 76.6821 36.9193 75.9692 36.8512 75.3635C36.7822 74.7505 36.946 74.3228 37.2247 74.0977Z" fill="white" stroke="#1A7430"/>
<path d="M55.621 59.2383C55.8997 59.0132 56.3523 58.9431 56.937 59.1394C57.5148 59.3335 58.15 59.771 58.678 60.4246C59.1408 60.9976 59.255 61.8308 59.2224 62.5985C59.2066 62.971 59.1571 63.3041 59.1114 63.5443C59.1106 63.5486 59.1088 63.5529 59.108 63.5571C59.1041 63.557 59.1001 63.5566 59.0962 63.5565C58.8517 63.5507 58.5153 63.5297 58.1474 63.4667C57.3901 63.3371 56.6004 63.0495 56.1376 62.4765C55.6096 61.8228 55.3155 61.1098 55.2474 60.5041C55.1785 59.8911 55.3422 59.4635 55.621 59.2383Z" fill="white" stroke="#1A7430"/>
<path d="M55.1849 76.2266C55.4637 76.0015 55.9163 75.9314 56.501 76.1277C57.0788 76.3218 57.714 76.7592 58.242 77.4129C58.7048 77.9859 58.819 78.8191 58.7864 79.5867C58.7706 79.9593 58.7211 80.2924 58.6754 80.5326C58.6745 80.5368 58.6727 80.5412 58.6719 80.5454C58.668 80.5453 58.6641 80.5449 58.6602 80.5448C58.4156 80.539 58.0792 80.518 57.7114 80.455C56.9541 80.3253 56.1643 80.0378 55.7015 79.4648C55.1735 78.811 54.8795 78.0981 54.8114 77.4924C54.7424 76.8794 54.9062 76.4517 55.1849 76.2266Z" fill="white" stroke="#1A7430"/>
<path d="M49.8736 90.6426C50.1524 90.4175 50.605 90.3474 51.1897 90.5437C51.7675 90.7378 52.4027 91.1753 52.9307 91.8289C53.3935 92.4019 53.5077 93.2351 53.4751 94.0028C53.4593 94.3753 53.4098 94.7084 53.3641 94.9486C53.3633 94.9529 53.3614 94.9572 53.3606 94.9614C53.3568 94.9613 53.3528 94.9609 53.3489 94.9608C53.1044 94.955 52.768 94.934 52.4001 94.871C51.6428 94.7414 50.853 94.4538 50.3902 93.8808C49.8623 93.2271 49.5682 92.5141 49.5001 91.9084C49.4312 91.2954 49.5949 90.8677 49.8736 90.6426Z" fill="white" stroke="#1A7430"/>
<path d="M89.3287 61.0528C89.6075 60.8277 90.0601 60.7575 90.6448 60.9539C91.2226 61.1479 91.8578 61.5854 92.3858 62.2391C92.8486 62.8121 92.9628 63.6453 92.9302 64.4129C92.9144 64.7855 92.8649 65.1185 92.8192 65.3587C92.8183 65.363 92.8165 65.3673 92.8157 65.3716C92.8118 65.3715 92.8079 65.3711 92.804 65.371C92.5594 65.3651 92.223 65.3441 91.8552 65.2812C91.0979 65.1515 90.3081 64.864 89.8453 64.291C89.3173 63.6372 89.0233 62.9243 88.9552 62.3185C88.8862 61.7056 89.05 61.2779 89.3287 61.0528Z" fill="white" stroke="#1A7430"/>
</svg>
