<svg width="73" height="66" viewBox="0 0 73 66" fill="none" xmlns="http://www.w3.org/2000/svg">
<path d="M36.5 46.3333V63M49.9 39.6667V63M63.3 26.3333V63M70 3L41.0359 31.82C40.8803 31.9752 40.6955 32.0984 40.492 32.1824C40.2885 32.2664 40.0703 32.3096 39.85 32.3096C39.6297 32.3096 39.4115 32.2664 39.208 32.1824C39.0045 32.0984 38.8197 31.9752 38.6641 31.82L27.6359 20.8467C27.3218 20.5342 26.8958 20.3587 26.4517 20.3587C26.0075 20.3587 25.5816 20.5342 25.2675 20.8467L3 43M9.7 53V63M23.1 39.6667V63" stroke="#1A7430" stroke-width="5" stroke-linecap="round" stroke-linejoin="round"/>
</svg>
