<svg width="127" height="32" viewBox="0 0 127 32" fill="none" xmlns="http://www.w3.org/2000/svg">
<path d="M20.462 20.2828C20.2516 18.7644 19.6785 17.2872 18.796 16.0031C20.4764 13.6629 20.9857 10.6201 20.1939 7.63685C19.3857 4.59813 17.3795 2.17168 14.6908 0.984137C13.3423 0.341055 11.8207 0 10.2866 0H1.79176C0.804128 0 0 0.801278 0 1.78542V10.2462C0.0061856 11.7768 0.348455 13.2951 0.991757 14.6347C2.88043 18.8281 7.96911 21.2957 12.5733 20.254C13.1279 20.1287 13.5155 19.6499 13.5155 19.087C13.5155 18.7788 13.3939 18.4891 13.1733 18.2672L12.4537 17.544C12.1526 17.2523 11.7423 17.1126 11.3588 17.1742C9.50726 17.4618 7.53199 16.9687 6.07426 15.8551L6.01859 15.8161C4.30105 14.5094 3.24538 12.3809 3.25981 10.2462V3.60578C3.25981 3.50716 3.29692 3.41881 3.36496 3.35306C3.42888 3.28937 3.50929 3.25033 3.61033 3.25855C4.04126 3.25855 4.64538 3.25445 5.33405 3.24828C7.61859 3.22979 11.0722 3.20102 11.6784 3.38388L11.7011 3.39005C13.7073 3.73933 15.4413 5.04192 16.4619 6.96501C17.4908 8.90658 17.6001 11.1748 16.7547 13.0322C16.7052 13.139 16.6104 13.213 16.4949 13.2335C16.3836 13.2541 16.2722 13.2191 16.1918 13.1411C15.2496 12.196 13.6743 10.6324 12.6186 9.58664L12.4743 9.44282L12.4578 9.42638C11.9836 9.05861 11.3279 9.05656 10.8537 9.4346C10.7939 9.48802 10.7423 9.54144 10.7031 9.58253C10.5526 9.72841 10.3959 9.8825 10.2454 10.0345C9.75881 10.5256 9.75881 11.3207 10.2454 11.8056L15.2599 16.8023C16.8991 18.411 17.6516 20.9032 17.1733 23.153C16.6331 25.8733 14.431 28.0675 11.6784 28.6161C11.0578 28.799 7.59591 28.7723 5.30518 28.7558C4.63095 28.7497 4.03507 28.7476 3.61033 28.7476C3.41651 28.7476 3.25981 28.5915 3.25981 28.3983V21.5607C3.25981 21.1642 3.06187 20.7841 2.72785 20.5416C2.21032 20.1677 1.71959 19.7465 1.22269 19.2534C1.0165 19.048 0.71959 18.9904 0.449485 19.1034C0.177319 19.2164 0.00206073 19.4774 0.00206073 19.7691V30.2146C0.00206073 31.1987 0.806189 32 1.79382 32H10.2887C11.8207 32 13.3444 31.6589 14.6908 31.0159C18.7362 29.1585 21.163 24.6446 20.464 20.2869L20.462 20.2828Z" fill="#323232" fill-opacity="0.5"/>
<path d="M26.9645 9.70807C26.9645 9.52185 27.0299 9.36253 27.1628 9.22804C27.2957 9.09355 27.4532 9.02734 27.6372 9.02734H33.3849C34.7937 9.02734 35.8324 9.43702 36.501 10.2584C36.8732 10.7116 37.0592 11.2888 37.0592 11.9923C37.0592 12.6958 36.7402 13.3103 36.1043 13.8338C37.0101 14.3242 37.462 15.0877 37.462 16.1222C37.462 17.1567 37.1001 17.943 36.3763 18.4789C35.6525 19.0148 34.7651 19.2838 33.7161 19.2838H27.6372C27.4532 19.2838 27.2957 19.2175 27.1628 19.0872C27.032 18.9568 26.9645 18.7975 26.9645 18.6113V9.706V9.70807ZM29.6308 13.0124H33.4115C33.7079 13.0124 33.9472 12.9234 34.1251 12.7455C34.305 12.5655 34.3929 12.3172 34.3929 11.9944C34.3929 11.6716 34.303 11.4213 34.1251 11.2392C33.9472 11.0571 33.7079 10.9681 33.4115 10.9681H29.6308V13.0145V13.0124ZM29.6308 17.3533H33.6732C34.0351 17.3533 34.3152 17.2436 34.5074 17.0243C34.6996 16.805 34.7978 16.505 34.7978 16.1222C34.7978 15.7394 34.7017 15.4394 34.5074 15.2201C34.3132 15.0008 34.0351 14.8911 33.6732 14.8911H29.6308V17.3512V17.3533Z" fill="#323232" fill-opacity="0.5"/>
<path d="M38.9028 18.5949V9.69138C38.9028 9.5052 38.9681 9.34798 39.1007 9.21973C39.2334 9.09147 39.3905 9.02734 39.5742 9.02734H47.708C47.8916 9.02734 48.0467 9.09354 48.1773 9.228C48.3059 9.3604 48.3712 9.52176 48.3712 9.70793V10.3802C48.3712 10.5664 48.3059 10.7236 48.1773 10.856C48.0488 10.9864 47.8916 11.0526 47.708 11.0526H41.5637V13.1336H46.855C47.0387 13.1336 47.1938 13.1998 47.3244 13.3302C47.455 13.4605 47.5182 13.6198 47.5182 13.8059V14.4783C47.5182 14.6644 47.4529 14.8237 47.3244 14.9541C47.1958 15.0844 47.0387 15.1506 46.855 15.1506H41.5637V17.2606H47.6937C47.8733 17.2606 48.0243 17.3247 48.1528 17.453C48.2814 17.5813 48.3447 17.7385 48.3447 17.9246V18.6114C48.3447 18.7976 48.2794 18.9548 48.1467 19.0872C48.0161 19.2176 47.857 19.2838 47.6733 19.2838H39.5762C39.3925 19.2838 39.2354 19.2176 39.1028 19.0872C38.9722 18.9569 38.9048 18.7935 38.9048 18.597L38.9028 18.5949Z" fill="#323232" fill-opacity="0.5"/>
<path d="M50.2277 18.6258V9.706C50.2277 9.50944 50.2916 9.34805 50.4194 9.21977C50.5473 9.09148 50.7101 9.02734 50.9039 9.02734H57.787C57.9828 9.02734 58.1416 9.09148 58.2673 9.21977C58.3931 9.34805 58.457 9.51151 58.457 9.706V10.3785C58.457 10.575 58.3931 10.7343 58.2673 10.8605C58.1416 10.9868 57.9808 11.0509 57.787 11.0509H52.9117V18.6258C52.9117 18.812 52.8458 18.9672 52.7159 19.0934C52.586 19.2196 52.4273 19.2838 52.2418 19.2838H50.9018C50.7163 19.2838 50.5576 19.2196 50.4236 19.0934C50.2916 18.9672 50.2236 18.8099 50.2236 18.6258H50.2277Z" fill="#323232" fill-opacity="0.5"/>
<path d="M59.6921 18.5949V9.69138C59.6921 9.5052 59.7574 9.34798 59.8901 9.21973C60.0227 9.09147 60.1798 9.02734 60.3635 9.02734H68.4973C68.681 9.02734 68.8361 9.09354 68.9667 9.228C69.0952 9.3604 69.1605 9.52176 69.1605 9.70793V10.3802C69.1605 10.5664 69.0952 10.7236 68.9667 10.856C68.8381 10.9884 68.681 11.0526 68.4973 11.0526H62.3531V13.1336H67.6444C67.828 13.1336 67.9831 13.1998 68.1137 13.3302C68.2443 13.4605 68.3076 13.6198 68.3076 13.8059V14.4783C68.3076 14.6644 68.2423 14.8237 68.1137 14.9541C67.9851 15.0844 67.828 15.1506 67.6444 15.1506H62.3531V17.2606H68.4831C68.6626 17.2606 68.8136 17.3247 68.9422 17.453C69.0707 17.5813 69.134 17.7385 69.134 17.9246V18.6114C69.134 18.7976 69.0687 18.9548 68.9361 19.0872C68.8055 19.2176 68.6463 19.2838 68.4626 19.2838H60.3655C60.1819 19.2838 60.0248 19.2176 59.8921 19.0872C59.7615 18.9569 59.6942 18.7935 59.6942 18.597L59.6921 18.5949Z" fill="#323232" fill-opacity="0.5"/>
<path d="M70.8073 10.3785V9.706C70.8073 9.50944 70.8705 9.34805 70.997 9.21977C71.1235 9.09148 71.2847 9.02734 71.4765 9.02734H80.4277C80.6195 9.02734 80.7807 9.09148 80.9072 9.21977C81.0337 9.34805 81.099 9.51151 81.099 9.706V10.3785C81.099 10.575 81.0357 10.7343 80.9072 10.8605C80.7807 10.9868 80.6195 11.0509 80.4277 11.0509H77.2814V18.6258C77.2814 18.812 77.2161 18.9672 77.0876 19.0934C76.959 19.2196 76.8019 19.2838 76.6183 19.2838H75.2859C75.1023 19.2838 74.9452 19.2196 74.8166 19.0934C74.6881 18.9672 74.6228 18.8099 74.6228 18.6258V11.0509H71.4765C71.2827 11.0509 71.1235 10.9868 70.997 10.8605C70.8705 10.7343 70.8073 10.5729 70.8073 10.3785Z" fill="#323232" fill-opacity="0.5"/>
<path d="M82.5398 18.5949V9.69138C82.5398 9.5052 82.6051 9.34798 82.7377 9.21973C82.8704 9.09147 83.0275 9.02734 83.2111 9.02734H91.345C91.5286 9.02734 91.6837 9.09354 91.8143 9.228C91.9429 9.3604 92.0082 9.52176 92.0082 9.70793V10.3802C92.0082 10.5664 91.9429 10.7236 91.8143 10.856C91.6858 10.9884 91.5286 11.0526 91.345 11.0526H85.2007V13.1336H90.492C90.6757 13.1336 90.8308 13.1998 90.9614 13.3302C91.092 13.4605 91.1552 13.6198 91.1552 13.8059V14.4783C91.1552 14.6644 91.0899 14.8237 90.9614 14.9541C90.8328 15.0844 90.6757 15.1506 90.492 15.1506H85.2007V17.2606H91.3307C91.5103 17.2606 91.6613 17.3247 91.7898 17.453C91.9184 17.5813 91.9817 17.7385 91.9817 17.9246V18.6114C91.9817 18.7976 91.9164 18.9548 91.7837 19.0872C91.6531 19.2176 91.494 19.2838 91.3103 19.2838H83.2132C83.0295 19.2838 82.8724 19.2176 82.7398 19.0872C82.6092 18.9569 82.5418 18.7935 82.5418 18.597L82.5398 18.5949Z" fill="#323232" fill-opacity="0.5"/>
<path d="M93.657 18.6134V9.70807C93.657 9.52185 93.7214 9.36253 93.8503 9.22804C93.9792 9.09355 94.1371 9.02734 94.3242 9.02734H99.8067C102.704 9.02734 104.152 10.3557 104.152 13.0145C104.152 15.6732 102.704 17.0016 99.8067 17.0016H96.3651V18.6113C96.3651 18.7975 96.2986 18.9548 96.1676 19.0872C96.0367 19.2175 95.8767 19.2838 95.6896 19.2838H94.3387C94.1517 19.2838 93.9916 19.2175 93.8565 19.0872C93.7235 18.9568 93.6549 18.7975 93.6549 18.6113L93.657 18.6134ZM96.3671 14.9801H98.99C99.7943 14.9801 100.405 14.8456 100.823 14.5766C101.241 14.3076 101.449 13.7883 101.449 13.0165C101.449 12.2448 101.241 11.7275 100.823 11.4564C100.407 11.1875 99.7964 11.053 98.99 11.053H96.3671V14.9801Z" fill="#323232" fill-opacity="0.5"/>
<path d="M105.595 18.6134V9.70807C105.595 9.52185 105.66 9.36253 105.789 9.22804C105.917 9.09355 106.075 9.02734 106.262 9.02734H111.745C114.642 9.02734 116.091 10.3557 116.091 13.0145C116.091 15.6732 114.642 17.0016 111.745 17.0016H108.303V18.6113C108.303 18.7975 108.237 18.9548 108.106 19.0872C107.975 19.2175 107.815 19.2838 107.628 19.2838H106.277C106.09 19.2838 105.93 19.2175 105.795 19.0872C105.662 18.9568 105.593 18.7975 105.593 18.6113L105.595 18.6134ZM108.303 14.9801H110.926C111.73 14.9801 112.341 14.8456 112.759 14.5766C113.177 14.3076 113.385 13.7883 113.385 13.0165C113.385 12.2448 113.177 11.7275 112.759 11.4564C112.344 11.1875 111.732 11.053 110.926 11.053H108.303V14.9801Z" fill="#323232" fill-opacity="0.5"/>
<path d="M116.118 18.6239L117.892 11.8159C118.372 9.96238 119.936 9.03148 122.583 9.02734H126.391C126.565 9.02734 126.71 9.09354 126.826 9.228C126.941 9.3604 127 9.51555 127 9.69345V18.6259C127 18.8121 126.935 18.9673 126.802 19.0934C126.669 19.2196 126.512 19.2838 126.328 19.2838H124.999C124.805 19.2838 124.647 19.2196 124.523 19.0934C124.398 18.9673 124.335 18.8059 124.335 18.6114V16.8096H119.31L118.836 18.6114C118.789 18.808 118.683 18.9673 118.517 19.0934C118.352 19.2196 118.178 19.2838 117.994 19.2838H116.602C116.418 19.2838 116.285 19.23 116.207 19.1224C116.128 19.0148 116.089 18.9217 116.091 18.8411C116.091 18.7604 116.101 18.688 116.115 18.6259L116.118 18.6239ZM119.834 14.7824H124.335V11.0484H122.321C121.87 11.0484 121.475 11.1787 121.138 11.4373C120.8 11.698 120.574 12.0455 120.455 12.4861L119.834 14.7824Z" fill="#323232" fill-opacity="0.5"/>
<path d="M29.4034 26.0496L29.1886 25.435H27.8115L27.5926 26.0496H26.9645L28.098 22.9727H28.9185L30.052 26.0496H29.4054H29.4034ZM27.9896 24.9318H29.0105L28.8857 24.5758L28.81 24.359C28.6668 23.9651 28.5625 23.6588 28.497 23.4401C28.4397 23.627 28.3272 23.9652 28.1532 24.4544L28.1082 24.5837L27.9875 24.9298L27.9896 24.9318Z" fill="#323232" fill-opacity="0.5"/>
<path d="M32.522 23.4838H31.0678V26.0496H30.4636V22.9727H32.522V23.4838Z" fill="#323232" fill-opacity="0.5"/>
<path d="M35.3149 23.2392C35.5113 23.4162 35.6094 23.6509 35.6094 23.9433C35.6094 24.2357 35.5113 24.4684 35.3149 24.6454C35.1186 24.8224 34.854 24.9099 34.5233 24.9099H33.5844V26.0496H32.9336V22.9727H34.5233C34.854 22.9727 35.1186 23.0622 35.3149 23.2392ZM34.4059 23.4759H33.5823V24.4087H34.4059C34.5788 24.4087 34.7153 24.3689 34.8156 24.2874C34.9138 24.2058 34.965 24.0924 34.965 23.9453C34.965 23.7981 34.9159 23.6827 34.8178 23.6012C34.7196 23.5196 34.583 23.4778 34.4059 23.4778V23.4759Z" fill="#323232" fill-opacity="0.5"/>
<path d="M38.9028 24.6137C38.9088 25.0851 38.7674 25.4756 38.4826 25.7912C38.1957 26.1048 37.8219 26.2606 37.3612 26.2545C36.8986 26.2606 36.5228 26.1068 36.2359 25.7932C35.949 25.4796 35.8096 25.0871 35.8156 24.6137C35.8096 24.1402 35.951 23.7477 36.2359 23.4341C36.5228 23.1205 36.8966 22.9668 37.3612 22.9728C37.8219 22.9668 38.1957 23.1205 38.4826 23.4361C38.7694 23.7498 38.9088 24.1423 38.9028 24.6137ZM36.6986 23.8206C36.5329 24.0209 36.4501 24.2839 36.4501 24.6137C36.4501 24.9435 36.5329 25.2065 36.6986 25.4068C36.8642 25.6071 37.0844 25.7062 37.3612 25.7062C37.638 25.7062 37.8542 25.6071 38.0199 25.4068C38.1856 25.2065 38.2684 24.9435 38.2684 24.6137C38.2684 24.2839 38.1856 24.0209 38.0199 23.8206C37.8542 23.6203 37.634 23.5211 37.3612 23.5211C37.0885 23.5211 36.8642 23.6203 36.6986 23.8206Z" fill="#323232" fill-opacity="0.5"/>
<path d="M41.9901 24.6056C41.9964 25.0811 41.8495 25.4776 41.5514 25.7912C41.2534 26.1048 40.861 26.2606 40.3762 26.2545C40.1285 26.2545 39.9082 26.2141 39.7109 26.1311C39.5136 26.0482 39.3143 25.9146 39.1086 25.7305L39.4842 25.3117C39.6731 25.4614 39.8284 25.5666 39.9502 25.6253C40.0803 25.684 40.2272 25.7143 40.3888 25.7143C40.6511 25.7143 40.8652 25.6354 41.0331 25.4756C41.201 25.3158 41.3038 25.0993 41.3395 24.8221H39.9627V24.3061H41.3248C41.2765 24.0593 41.1674 23.8671 40.9995 23.7255C40.8316 23.5838 40.6238 23.5151 40.3783 23.5151C40.2293 23.5151 40.0908 23.5414 39.9627 23.5919C39.8347 23.6425 39.692 23.7356 39.5325 23.8671L39.1569 23.4402C39.352 23.2723 39.543 23.1529 39.7277 23.0801C39.9145 23.0072 40.1264 22.9728 40.3678 22.9728C40.8589 22.9668 41.2534 23.1185 41.5493 23.4301C41.8474 23.7396 41.9922 24.1322 41.9859 24.6056H41.9901Z" fill="#323232" fill-opacity="0.5"/>
<path d="M44.7515 26.0496L43.7528 24.6891H43.2545V26.0496H42.6078V22.9727H43.2545V24.178H43.7634L44.7112 22.9727H45.4449L44.2935 24.4206L45.4894 26.0496H44.7494H44.7515Z" fill="#323232" fill-opacity="0.5"/>
<path d="M48.371 24.6137C48.377 25.0851 48.2356 25.4756 47.9507 25.7912C47.6638 26.1048 47.2901 26.2606 46.8294 26.2545C46.3667 26.2606 45.9909 26.1068 45.7041 25.7932C45.4172 25.4796 45.2778 25.0871 45.2838 24.6137C45.2778 24.1402 45.4192 23.7477 45.7041 23.4341C45.9909 23.1205 46.3647 22.9668 46.8294 22.9728C47.2901 22.9668 47.6638 23.1205 47.9507 23.4361C48.2376 23.7498 48.377 24.1423 48.371 24.6137ZM46.1687 23.8206C46.0031 24.0209 45.9202 24.2839 45.9202 24.6137C45.9202 24.9435 46.0031 25.2065 46.1687 25.4068C46.3344 25.6071 46.5546 25.7062 46.8314 25.7062C47.1082 25.7062 47.3244 25.6071 47.4901 25.4068C47.6557 25.2065 47.7386 24.9435 47.7386 24.6137C47.7386 24.2839 47.6557 24.0209 47.4901 23.8206C47.3244 23.6203 47.1042 23.5211 46.8314 23.5211C46.5587 23.5211 46.3344 23.6203 46.1687 23.8206Z" fill="#323232" fill-opacity="0.5"/>
<path d="M51.6646 26.0496H50.9574L50.1198 24.859L49.2761 26.0496H48.5771L49.7393 24.4157L48.6991 22.9727H49.4105L50.126 23.9903L50.8374 22.9727H51.5406L50.4941 24.4197L51.6605 26.0476L51.6646 26.0496Z" fill="#323232" fill-opacity="0.5"/>
<path d="M54.7519 24.6137C54.7579 25.0851 54.6165 25.4756 54.3316 25.7912C54.0447 26.1048 53.671 26.2606 53.2103 26.2545C52.7477 26.2606 52.3719 26.1068 52.085 25.7932C51.7981 25.4796 51.6587 25.0871 51.6647 24.6137C51.6587 24.1402 51.8001 23.7477 52.085 23.4341C52.3719 23.1205 52.7456 22.9668 53.2103 22.9728C53.671 22.9668 54.0447 23.1205 54.3316 23.4361C54.6185 23.7498 54.7579 24.1423 54.7519 24.6137ZM52.5476 23.8206C52.382 24.0209 52.2991 24.2839 52.2991 24.6137C52.2991 24.9435 52.382 25.2065 52.5476 25.4068C52.7133 25.6071 52.9335 25.7062 53.2103 25.7062C53.4871 25.7062 53.7033 25.6071 53.869 25.4068C54.0346 25.2065 54.1175 24.9435 54.1175 24.6137C54.1175 24.2839 54.0346 24.0209 53.869 23.8206C53.7033 23.6203 53.4831 23.5211 53.2103 23.5211C52.9376 23.5211 52.7133 23.6203 52.5476 23.8206Z" fill="#323232" fill-opacity="0.5"/>
<path d="M54.9579 26.2045L55.0183 25.6669C55.0848 25.6795 55.1553 25.6857 55.2298 25.6857C55.3345 25.6857 55.411 25.6523 55.4573 25.5853C55.5036 25.5247 55.5338 25.4389 55.5479 25.3301C55.562 25.2214 55.5701 25.0373 55.5721 24.7779L55.5802 22.9727H57.8396V26.2087H57.2254V23.5103H56.1541L56.146 24.8595C56.14 25.3573 56.0796 25.7129 55.9668 25.9242C55.852 26.1355 55.6345 26.2463 55.3123 26.2547C55.1895 26.2547 55.0707 26.238 54.9579 26.2045Z" fill="#323232" fill-opacity="0.5"/>
<path d="M58.8751 22.9747H61.1548V25.6619H61.5447V26.8701H60.9373V26.1973H58.8587V26.8701H58.2513V25.6619H58.5324C58.633 25.5078 58.7151 25.3265 58.7746 25.1161C58.8341 24.9016 58.8648 24.5995 58.8689 24.2079L58.8772 22.9727L58.8751 22.9747ZM59.1747 25.6619H60.529V23.5101H59.4599L59.4517 24.2267C59.4496 24.6162 59.4209 24.9266 59.3676 25.1536C59.3204 25.3557 59.2568 25.5265 59.1747 25.6619Z" fill="#323232" fill-opacity="0.5"/>
<path d="M63.9534 22.9727H64.6321V26.0496H64.0252V24.9875C64.0252 24.4564 64.0354 24.0188 64.0559 23.6787C63.8919 23.9731 63.6725 24.3431 63.3998 24.7886L62.6227 26.0496H61.9563V22.9727H62.5632V24.0905C62.5632 24.6215 62.555 25.0293 62.5366 25.3137C62.6821 25.0352 62.879 24.7011 63.1271 24.3072L63.9534 22.9727Z" fill="#323232" fill-opacity="0.5"/>
<path d="M68.1313 22.9727V26.0496H67.504V24.6891H66.0828V26.0496H65.4554V22.9727H66.0828V24.178H67.504V22.9727H68.1313Z" fill="#323232" fill-opacity="0.5"/>
<path d="M70.8073 23.4838H69.3532V26.0496H68.7489V22.9727H70.8073V23.4838Z" fill="#323232" fill-opacity="0.5"/>
<path d="M72.2501 26.0456V22.9727H74.4887V23.4832H72.8691V24.1506H73.6688C73.9834 24.1506 74.2371 24.236 74.4299 24.4068C74.6227 24.5777 74.7181 24.8081 74.7181 25.1001C74.7181 25.3921 74.6227 25.6225 74.4299 25.7933C74.2391 25.9642 73.9854 26.0496 73.6688 26.0496H72.2481L72.2501 26.0456ZM72.8691 25.545H73.5673C73.7358 25.545 73.8657 25.5073 73.959 25.4298C74.0524 25.3543 74.0991 25.2431 74.0991 25.0981C74.0991 24.9531 74.0524 24.8438 73.959 24.7664C73.8657 24.6909 73.7358 24.6512 73.5673 24.6512H72.8691V25.5431V25.545Z" fill="#323232" fill-opacity="0.5"/>
<path d="M76.9701 22.9768H77.5996L76.4013 25.5863C76.3156 25.7606 76.2424 25.8914 76.1776 25.9765C76.1148 26.0617 76.0312 26.1302 75.9308 26.1779C75.8304 26.2256 75.7008 26.2526 75.5439 26.2547C75.408 26.2547 75.2574 26.2319 75.0985 26.1862L75.2177 25.6568C75.3306 25.6838 75.4268 25.6984 75.5084 25.6984C75.5962 25.6984 75.6694 25.6818 75.7258 25.6465C75.7823 25.6112 75.8304 25.5468 75.8743 25.4534L75.8932 25.4119L74.7179 22.9727H75.3829L76.1943 24.7289L76.9743 22.9727L76.9701 22.9768Z" fill="#323232" fill-opacity="0.5"/>
<path d="M78.0177 22.9747H80.2974V25.6619H80.6872V26.8701H80.0799V26.1973H78.0013V26.8701H77.3939V25.6619H77.675C77.7755 25.5078 77.8576 25.3265 77.9171 25.1161C77.9766 24.9016 78.0074 24.5995 78.0115 24.2079L78.0197 22.9727L78.0177 22.9747ZM78.3173 25.6619H79.6715V23.5101H78.6025L78.5943 24.2267C78.5922 24.6162 78.5635 24.9266 78.5101 25.1536C78.4629 25.3557 78.3993 25.5265 78.3173 25.6619Z" fill="#323232" fill-opacity="0.5"/>
<path d="M82.9395 22.9768H83.5689L82.3707 25.5863C82.2849 25.7606 82.2117 25.8914 82.1469 25.9765C82.0842 26.0617 82.0005 26.1302 81.9002 26.1779C81.7998 26.2256 81.6701 26.2526 81.5133 26.2547C81.3774 26.2547 81.2268 26.2319 81.0679 26.1862L81.1871 25.6568C81.3 25.6838 81.3962 25.6984 81.4777 25.6984C81.5656 25.6984 81.6388 25.6818 81.6952 25.6465C81.7517 25.6112 81.7998 25.5468 81.8437 25.4534L81.8625 25.4119L80.6873 22.9727H81.3523L82.1637 24.7289L82.9437 22.9727L82.9395 22.9768Z" fill="#323232" fill-opacity="0.5"/>
<path d="M87.8986 26.8701V26.1969H83.9806V22.9727H84.6139V25.6613H85.7309V22.9727H86.3642V25.6613H87.4812V22.9727H88.1145V25.6613H88.509V26.8701H87.8986Z" fill="#323232" fill-opacity="0.5"/>
<path d="M91.1358 22.9727V23.4838H89.5421V24.2038H91.0339V24.715H89.5421V25.5384H91.1847V26.0496H88.9205V22.9727H91.1358Z" fill="#323232" fill-opacity="0.5"/>
<path d="M93.8606 23.4838H92.4065V26.0496H91.8022V22.9727H93.8606V23.4838Z" fill="#323232" fill-opacity="0.5"/>
<path d="M97.1539 24.6137C97.1599 25.0851 97.0185 25.4756 96.7336 25.7912C96.4467 26.1048 96.073 26.2606 95.6123 26.2545C95.1496 26.2606 94.7739 26.1068 94.487 25.7932C94.2001 25.4796 94.0607 25.0871 94.0667 24.6137C94.0607 24.1402 94.2021 23.7477 94.487 23.4341C94.7739 23.1205 95.1476 22.9668 95.6123 22.9728C96.073 22.9668 96.4467 23.1205 96.7336 23.4361C97.0205 23.7498 97.1599 24.1423 97.1539 24.6137ZM94.9496 23.8206C94.7839 24.0209 94.7011 24.2839 94.7011 24.6137C94.7011 24.9435 94.7839 25.2065 94.9496 25.4068C95.1153 25.6071 95.3355 25.7062 95.6123 25.7062C95.8891 25.7062 96.1053 25.6071 96.271 25.4068C96.4366 25.2065 96.5195 24.9435 96.5195 24.6137C96.5195 24.2839 96.4366 24.0209 96.271 23.8206C96.1053 23.6203 95.8851 23.5211 95.6123 23.5211C95.3396 23.5211 95.1153 23.6203 94.9496 23.8206Z" fill="#323232" fill-opacity="0.5"/>
</svg>
