<svg width="28" height="16" viewBox="0 0 28 16" fill="none" xmlns="http://www.w3.org/2000/svg">
<path d="M13.6998 15.9332H15.3723C15.3723 15.9332 15.8768 15.8761 16.1352 15.5982C16.3738 15.3427 16.3638 14.8613 16.3638 14.8613C16.3638 14.8613 16.3315 12.6133 17.3753 12.2808C18.4041 11.9557 19.7237 14.4544 21.1203 15.4171C22.1765 16.1441 22.9817 15.9853 22.9817 15.9853L26.7218 15.9332C26.7218 15.9332 28.6776 15.8116 27.7506 14.2708C27.6761 14.1442 27.2089 13.1318 24.9698 11.0501C22.6238 8.86901 22.9395 9.22383 25.765 5.45477C27.4847 3.15959 28.1731 1.75766 27.9594 1.15719C27.7556 0.586498 26.4882 0.735375 26.4882 0.735375L22.2809 0.760188C22.2809 0.760188 21.9703 0.718006 21.7367 0.856958C21.5105 0.993428 21.3664 1.30855 21.3664 1.30855C21.3664 1.30855 20.7004 3.08515 19.8107 4.59625C17.9369 7.78469 17.1864 7.95094 16.8783 7.75243C16.165 7.29092 16.344 5.89892 16.344 4.90889C16.344 1.81969 16.8112 0.53191 15.4319 0.199419C14.9722 0.0877612 14.6367 0.0158041 13.4662 0.00339769C11.9652 -0.01149 10.6903 0.00836028 9.97212 0.360702C9.49249 0.596424 9.12221 1.11997 9.34835 1.14975C9.62669 1.18697 10.2579 1.31848 10.5909 1.77503C11.0233 2.36309 11.0084 3.68314 11.0084 3.68314C11.0084 3.68314 11.2569 7.31821 10.4294 7.77228C9.86029 8.08244 9.08245 7.44972 7.40996 4.55655C6.55508 3.07522 5.90647 1.43758 5.90647 1.43758C5.90647 1.43758 5.78221 1.13238 5.56104 0.971097C5.29016 0.772594 4.91242 0.710562 4.91242 0.710562L0.911384 0.735375C0.911384 0.735375 0.309986 0.752744 0.0912961 1.01328C-0.105028 1.24652 0.0763854 1.72789 0.0763854 1.72789C0.0763854 1.72789 3.21012 9.06503 6.75638 12.7646C10.0094 16.1565 13.7048 15.9332 13.7048 15.9332H13.6998Z" fill="#323232" fill-opacity="0.5"/>
</svg>
