<svg width="24" height="24" viewBox="0 0 24 24" fill="none" xmlns="http://www.w3.org/2000/svg">
<path fill-rule="evenodd" clip-rule="evenodd" d="M24.0002 11.6912C24.0002 18.1469 18.7255 23.3816 12.2188 23.3816C10.1524 23.3816 8.21105 22.8539 6.52335 21.9269L0 23.9999L2.12634 17.7279C1.05334 15.9659 0.436348 13.8996 0.436348 11.6913C0.436348 5.23429 5.71099 2.08637e-09 12.2188 2.08637e-09C18.7255 -0.000120668 24.0002 5.23417 24.0002 11.6912ZM12.2188 1.86193C6.7554 1.86193 2.31266 6.2706 2.31266 11.6912C2.31266 13.8408 3.01303 15.8332 4.19935 17.4541L2.96235 21.1038L6.76831 19.8944C8.33197 20.9204 10.2056 21.5194 12.2187 21.5194C17.6797 21.5194 22.1237 17.1104 22.1237 11.6911C22.1238 6.2706 17.6799 1.86193 12.2188 1.86193ZM18.1682 14.3838C18.0952 14.2641 17.9025 14.1924 17.6148 14.0492C17.3258 13.9062 15.9052 13.2122 15.6408 13.1173C15.3764 13.0219 15.1825 12.9739 14.9911 13.2603C14.7984 13.547 14.2447 14.1926 14.0758 14.3839C13.9078 14.5756 13.7397 14.599 13.4508 14.4556C13.1615 14.3126 12.2305 14.0089 11.1278 13.034C10.2698 12.2733 9.69012 11.3361 9.52082 11.0494C9.3532 10.763 9.50417 10.6081 9.64716 10.4651C9.77748 10.3361 9.93641 10.1305 10.0809 9.96382C10.2255 9.79584 10.2736 9.67578 10.3699 9.48452C10.4662 9.29313 10.4182 9.12649 10.3452 8.98313C10.2736 8.84014 9.69555 7.42987 9.45457 6.85549C9.21528 6.28279 8.97418 6.30427 8.80488 6.30427C8.6369 6.30427 8.32509 6.35422 8.32509 6.35422C8.32509 6.35422 7.74611 6.4259 7.48184 6.71261C7.21745 6.99896 6.47146 7.69293 6.47146 9.10187C6.47146 10.5119 7.50549 11.8752 7.64982 12.0652C7.7945 12.2568 9.64716 15.2448 12.5836 16.3921C15.52 17.5391 15.52 17.1565 16.0496 17.1082C16.5783 17.0615 17.7579 16.4155 17.9989 15.7462C18.2398 15.0765 18.2398 14.5026 18.1682 14.3838Z" fill="#323232" fill-opacity="0.5"/>
</svg>
