<svg width="11" height="11" viewBox="0 0 11 11" fill="none" xmlns="http://www.w3.org/2000/svg">
<path fill-rule="evenodd" clip-rule="evenodd" d="M11 5.35847C11 8.31733 8.58242 10.7166 5.60022 10.7166C4.65314 10.7166 3.76336 10.4747 2.98984 10.0498L0 10.9999L0.974564 8.12531C0.482774 7.31772 0.199991 6.37064 0.199991 5.35852C0.199991 2.39905 2.61751 9.56253e-10 5.60022 9.56253e-10C8.58242 -5.5306e-05 11 2.39899 11 5.35847ZM5.60022 0.853386C3.09619 0.853386 1.05996 2.87403 1.05996 5.35847C1.05996 6.34371 1.38096 7.25688 1.92468 7.99982L1.35773 9.67258L3.10211 9.11829C3.81878 9.58851 4.67753 9.86305 5.60016 9.86305C8.10313 9.86305 10.1399 7.84225 10.1399 5.35841C10.14 2.87403 8.10319 0.853386 5.60022 0.853386ZM8.32701 6.59259C8.29355 6.53772 8.20523 6.50487 8.07338 6.43922C7.94092 6.37368 7.28979 6.05561 7.16861 6.01209C7.04743 5.96839 6.95856 5.94638 6.87084 6.07763C6.78251 6.20903 6.52876 6.50493 6.45133 6.59264C6.37435 6.68047 6.29731 6.6912 6.1649 6.6255C6.03227 6.55996 5.60558 6.42075 5.10019 5.97392C4.70695 5.62527 4.44126 5.1957 4.36366 5.06429C4.28684 4.93305 4.35603 4.86203 4.42157 4.79649C4.4813 4.73737 4.55414 4.64313 4.62034 4.56675C4.68666 4.48976 4.70867 4.43473 4.7528 4.34707C4.79694 4.25935 4.77498 4.18297 4.74152 4.11727C4.70867 4.05173 4.44375 3.40536 4.3333 3.1421C4.22363 2.87961 4.11312 2.88946 4.03553 2.88946C3.95854 2.88946 3.81563 2.91235 3.81563 2.91235C3.81563 2.91235 3.55026 2.94521 3.42914 3.07662C3.30796 3.20786 2.96606 3.52593 2.96606 4.17169C2.96606 4.81795 3.43998 5.44281 3.50613 5.52986C3.57244 5.61769 4.42157 6.9872 5.76741 7.51306C7.11325 8.03875 7.11325 7.86338 7.35599 7.84125C7.59829 7.81985 8.13897 7.52379 8.24942 7.217C8.35981 6.91005 8.35981 6.64701 8.32701 6.59259Z" fill="url(#paint0_linear_108_3131)"/>
<defs>
<linearGradient id="paint0_linear_108_3131" x1="-4.24683e-07" y1="10.9999" x2="8.99995" y2="0.999949" gradientUnits="userSpaceOnUse">
<stop stop-color="#0A883B"/>
<stop offset="1" stop-color="#45BD4A"/>
</linearGradient>
</defs>
</svg>
